<?xml version="1.0" encoding="utf-8"?>
<!-- Generator: Adobe Illustrator 19.2.0, SVG Export Plug-In . SVG Version: 6.00 Build 0)  -->
<svg version="1.1" id="Слой_1" xmlns="http://www.w3.org/2000/svg" xmlns:xlink="http://www.w3.org/1999/xlink" x="0px" y="0px"
	 viewBox="0 0 38 35.5" style="enable-background:new 0 0 38 35.5;" xml:space="preserve">
<style type="text/css">
	.st0{fill:none;stroke:#00AAE7;stroke-width:1.44;stroke-linecap:round;stroke-linejoin:round;stroke-miterlimit:22.9256;}
</style>
<path class="st0" d="M34.188,19.951c-0.874,7.652-7.371,13.597-15.258,13.597c-7.441,0-13.644-5.291-15.057-12.316"/>
<path class="st0" d="M3.672,15.576C4.546,7.924,11.044,1.979,18.93,1.979c7.557,0,13.838,5.459,15.119,12.647"/>
<polyline class="st0" points="7.047,13.653 3.872,16.151 1.374,12.977 "/>
<polyline class="st0" points="30.813,21.885 33.987,19.387 36.486,22.561 "/>
<g>
	<path class="st0" d="M26.873,24.214H11.735c-0.776,0-1.414-0.636-1.414-1.414v-9.639c0-0.778,0.636-1.414,1.414-1.414h15.138
		c0.778,0,1.414,0.638,1.414,1.414V22.8C28.287,23.576,27.648,24.214,26.873,24.214h-0.644"/>
	<line class="st0" x1="12.317" y1="22.044" x2="13.915" y2="22.044"/>
	<line class="st0" x1="15.861" y1="22.044" x2="17.849" y2="22.044"/>
	<polygon class="st0" points="28.287,14.714 28.287,17.015 10.321,17.015 10.321,14.714 28.287,14.714 	"/>
</g>
</svg>
