<?xml version="1.0" encoding="utf-8"?>
<!-- Generator: Adobe Illustrator 19.2.0, SVG Export Plug-In . SVG Version: 6.00 Build 0)  -->
<svg version="1.1" id="Слой_1" xmlns="http://www.w3.org/2000/svg" xmlns:xlink="http://www.w3.org/1999/xlink" x="0px" y="0px"
	 viewBox="0 0 35.449 35.896" style="enable-background:new 0 0 35.449 35.896;" xml:space="preserve">
<style type="text/css">
	.st0{fill:none;stroke:#FFFFFF;stroke-width:1.44;stroke-linecap:round;stroke-linejoin:round;stroke-miterlimit:22.9256;}
</style>
<path class="st0" d="M18.852,24.427l4.402-2.341c1.035-0.551,3.058-1.386,3.069,0.679l0.743-0.509
	c2.086-1.428,3.674-0.416,2.894,1.557c3.708-2.696,5.019,0.717,3.367,1.555l-8.205,5.183l-3.478,2.197
	c-2.461,1.554-5.708,1.578-6.622,1.033C9.83,32.443,8.333,31.17,3.807,31.75"/>
<path class="st0" d="M1.624,22.512l5.366-2.181c1.37-0.557,2.903-0.414,3.48,0.014c0.969,0.718,1.938,1.436,2.907,2.154
	c4.035,2.99,4.362,2.243,9.115,2.527c1.053,0.062,1.746,1.759,0,2.43c-4.437,2.029-7.175,1.119-11.22-0.952"/>
<line class="st0" x1="17.827" y1="4.138" x2="17.827" y2="5.997"/>
<line class="st0" x1="17.827" y1="14.105" x2="17.827" y2="15.964"/>
<path class="st0" d="M17.827,1.391c4.783,0,8.66,3.877,8.66,8.66c0,4.783-3.877,8.66-8.66,8.66s-8.66-3.877-8.66-8.66
	C9.168,5.268,13.045,1.391,17.827,1.391L17.827,1.391z"/>
<path class="st0" d="M20.522,6.966c-0.856-0.285-1.629-0.552-2.404-0.639c-4.176-0.469-4.712,3.738-0.266,3.724
	c4.32-0.013,3.913,4.198-0.273,3.724c-0.775-0.088-1.547-0.356-2.398-0.639"/>
</svg>
