<?xml version="1.0" encoding="utf-8"?>
<!-- Generator: Adobe Illustrator 19.2.0, SVG Export Plug-In . SVG Version: 6.00 Build 0)  -->
<svg version="1.1" id="Layer_1" xmlns="http://www.w3.org/2000/svg" xmlns:xlink="http://www.w3.org/1999/xlink" x="0px" y="0px"
	 viewBox="0 0 88.576 178.404" style="enable-background:new 0 0 88.576 178.404;" xml:space="preserve">
<style type="text/css">
	.st0{fill:#ADB1B2;}
	.st1{fill:#F4F4F4;}
	.st2{fill:#282828;}
	.st3{fill:#D1D1D1;}
	.st4{fill:#E5E5E5;}
</style>
<rect x="1.378" y="22.389" class="st0" width="1.096" height="6.183"/>
<rect x="86.657" y="35.629" class="st0" width="1.095" height="11.677"/>
<rect x="1.378" y="35.629" class="st0" width="1.096" height="11.209"/>
<rect x="1.378" y="49.458" class="st0" width="1.096" height="11.058"/>
<path class="st1" d="M75.057,2.919h-61.13c-6.107,0-11.059,4.952-11.059,11.059v151.19c0,6.107,4.952,11.058,11.059,11.058h61.13
	c6.107,0,11.058-4.951,11.058-11.058V13.978C86.115,7.871,81.164,2.919,75.057,2.919z M81.757,155.431H7.632V24.017h74.125V155.431z
	"/>
<g>
	<path class="st2" d="M82.119,155.796H7.268V23.652h74.852V155.796z M7.998,155.067h73.394V24.377H7.998V155.067z"/>
</g>
<circle class="st3" cx="44.213" cy="166.537" r="5.661"/>
<circle class="st4" cx="44.213" cy="166.536" r="4.996"/>
<circle class="st0" cx="32.805" cy="12.517" r="1.261"/>
<path class="st0" d="M50.158,12.514c0,0.268-0.221,0.481-0.496,0.481H39.323c-0.274,0-0.496-0.214-0.496-0.481l0,0
	c0-0.263,0.222-0.478,0.496-0.478h10.339C49.936,12.037,50.158,12.251,50.158,12.514L50.158,12.514z"/>
<path class="st3" d="M75.057,2.919c6.107,0,11.058,4.952,11.058,11.059v151.19c0,6.107-4.951,11.058-11.058,11.058h-61.13
	c-6.107,0-11.059-4.951-11.059-11.058V13.978c0-6.107,4.952-11.059,11.059-11.059H75.057 M75.057,2.078h-61.13
	c-6.563,0-11.901,5.338-11.901,11.9v151.19c0,6.563,5.339,11.901,11.901,11.901h61.13c6.563,0,11.901-5.339,11.901-11.901V13.978
	C86.958,7.416,81.619,2.078,75.057,2.078L75.057,2.078z"/>
</svg>
