<?xml version="1.0" encoding="utf-8"?>
<!-- Generator: Adobe Illustrator 19.2.0, SVG Export Plug-In . SVG Version: 6.00 Build 0)  -->
<svg version="1.1" id="Слой_1" xmlns="http://www.w3.org/2000/svg" xmlns:xlink="http://www.w3.org/1999/xlink" x="0px" y="0px"
	 viewBox="0 0 35.895 37.25" style="enable-background:new 0 0 35.895 37.25;" xml:space="preserve">
<style type="text/css">
	.st0{fill:none;stroke:#FFFFFF;stroke-width:1.44;stroke-linecap:round;stroke-linejoin:round;stroke-miterlimit:22.9256;}
</style>
<line class="st0" x1="24.264" y1="19.244" x2="24.264" y2="21.335"/>
<line class="st0" x1="24.264" y1="30.456" x2="24.264" y2="32.547"/>
<path class="st0" d="M24.265,16.266c5.318,0,9.63,4.312,9.63,9.63s-4.311,9.63-9.63,9.63c-5.318,0-9.63-4.311-9.63-9.63
	S18.946,16.266,24.265,16.266L24.265,16.266z"/>
<path class="st0" d="M27.296,22.426c-0.964-0.32-1.832-0.621-2.704-0.72c-4.697-0.528-5.3,4.204-0.3,4.189
	c4.859-0.015,4.402,4.722-0.307,4.189c-0.872-0.099-1.741-0.401-2.697-0.719"/>
<polyline class="st0" points="7.205,6.079 3.444,6.079 3.444,2.293 23.04,2.293 23.04,6.079 "/>
<polyline class="st0" points="7.129,9.864 7.129,6.079 26.725,6.079 26.725,9.864 21.141,9.864 "/>
<polyline class="st0" points="1.46,13.65 1.46,9.864 21.055,9.864 21.055,13.65 "/>
<polyline class="st0" points="1.46,17.436 1.46,13.65 21.055,13.65 21.055,16.412 "/>
<polyline class="st0" points="1.46,21.221 1.46,17.436 19.49,17.436 "/>
<polyline class="st0" points="1.46,25.007 1.46,21.221 15.751,21.221 "/>
<polyline class="st0" points="1.46,28.792 1.46,25.007 14.489,25.007 "/>
<polyline class="st0" points="17.119,32.578 1.46,32.578 1.46,28.792 14.974,28.792 "/>
</svg>
