<?xml version="1.0" standalone="no"?>
<!DOCTYPE svg PUBLIC "-//W3C//DTD SVG 1.1//EN" "http://www.w3.org/Graphics/SVG/1.1/DTD/svg11.dtd" >
<svg xmlns="http://www.w3.org/2000/svg">
<metadata></metadata>
<defs>
<font id="gotham_probold" horiz-adv-x="993" >
<font-face units-per-em="2048" ascent="1638" descent="-410" />
<missing-glyph horiz-adv-x="595" />
<glyph horiz-adv-x="2048" />
<glyph horiz-adv-x="2048" />
<glyph unicode="&#xd;" horiz-adv-x="2048" />
<glyph unicode=" "  horiz-adv-x="595" />
<glyph unicode="&#x09;" horiz-adv-x="595" />
<glyph unicode="&#xa0;" horiz-adv-x="595" />
<glyph unicode="!" horiz-adv-x="643" d="M146 1351v40h353v-40l-94 -879h-166zM161 0v318h322v-318h-322z" />
<glyph unicode="&#x22;" horiz-adv-x="1032" d="M113 757l36 634h334v-11l-217 -623h-153zM582 757l36 634h334v-11l-217 -623h-153z" />
<glyph unicode="#" horiz-adv-x="1390" d="M70 298v254h194l50 294h-175v255h219l49 290h262l-49 -290h288l49 290h262l-49 -290h151v-255h-195l-49 -294h174v-254h-218l-51 -298h-263l52 298h-288l-52 -298h-262l51 298h-150zM527 552h288l49 294h-288z" />
<glyph unicode="$" horiz-adv-x="1283" d="M87 195l155 226q86 -65 163 -104.5t161 -56.5v316q-88 24 -154 51t-119 63t-86.5 80.5t-50.5 102t-17 128.5q0 163 113 266.5t304 123.5v114h206v-118q199 -27 370 -147l-133 -233q-128 85 -246 117v-300q153 -41 246.5 -97.5t139 -138t45.5 -194.5q0 -163 -114.5 -267 t-307.5 -125v-197h-206v201q-128 17 -249 66t-220 123zM429 1016q0 -33 11 -56t42 -45t84 -41v269q-69 -9 -103 -42t-34 -85zM753 250q141 21 141 131q0 52 -31 85t-110 63v-279z" />
<glyph unicode="%" horiz-adv-x="1708" d="M89 1051q0 98 42 179t120.5 128.5t177.5 47.5q98 0 175 -47t118.5 -128t41.5 -180q0 -98 -42 -178.5t-120 -129t-177 -48.5q-98 0 -175.5 47.5t-119 128t-41.5 180.5zM229 0l1015 1391h236l-1015 -1391h-236zM298 1051q0 -47 16 -86.5t46 -64t69 -24.5q60 0 93.5 50.5 t33.5 124.5q0 72 -36.5 123.5t-94.5 51.5q-60 0 -93.5 -50t-33.5 -125zM944 340q0 58 15.5 112t45.5 98t71 76.5t94.5 50.5t112.5 18q99 0 176 -47t118.5 -128t41.5 -180q0 -98 -42 -178.5t-120.5 -129t-177.5 -48.5q-98 0 -175 47.5t-118.5 128t-41.5 180.5zM1152 340 q0 -73 36.5 -124t94.5 -51q60 0 93.5 50.5t33.5 124.5q0 72 -36.5 123t-94.5 51q-60 0 -93.5 -50t-33.5 -124z" />
<glyph unicode="&#x26;" horiz-adv-x="1382" d="M68 385q0 259 270 382q-97 136 -97 282q0 72 28.5 137.5t80.5 116.5t133 81t179 30q87 0 160.5 -27t123.5 -74.5t78 -112.5t28 -139q0 -68 -20.5 -125.5t-60.5 -101.5t-91.5 -77t-119.5 -60l186 -185q65 104 135 239l225 -123q-102 -186 -184 -294l205 -205l-224 -157 l-161 163q-188 -154 -408 -154q-133 0 -238 48t-166.5 141t-61.5 215zM375 394q0 -73 55 -118t140 -45q99 0 201 78l-267 271q-129 -67 -129 -186zM521 1031q0 -45 18.5 -83.5t62.5 -89.5q95 36 140 79.5t45 109.5q0 39 -16.5 68.5t-46.5 45t-68 15.5q-61 0 -98 -39.5 t-37 -105.5z" />
<glyph unicode="'" horiz-adv-x="567" d="M113 757l36 634h338v-11l-216 -623h-158z" />
<glyph unicode="(" horiz-adv-x="883" d="M117 570q0 283 136.5 491t413.5 359l133 -201q-102 -71 -173 -140.5t-118.5 -148.5t-69.5 -166.5t-22 -193.5q0 -207 90 -357t293 -293l-133 -200q-277 150 -413.5 358.5t-136.5 491.5z" />
<glyph unicode=")" horiz-adv-x="883" d="M83 -80q204 143 294 293t90 357q0 85 -14.5 158t-43.5 138t-75.5 125t-107.5 115.5t-143 112.5l133 201q185 -100 306 -224t183 -280t62 -346q0 -283 -136.5 -491.5t-414.5 -358.5z" />
<glyph unicode="*" horiz-adv-x="853" d="M101 974l223 93l-223 93l83 143l193 -147l-32 239h163l-31 -239l192 147l84 -143l-222 -93l222 -93l-84 -144l-192 148l31 -239h-163l32 239l-193 -148z" />
<glyph unicode="+" horiz-adv-x="1270" d="M135 563v273h360v358h282v-358h359v-273h-359v-358h-282v358h-360z" />
<glyph unicode="," horiz-adv-x="567" d="M51 -197q97 10 146 54.5t49 120.5v22h-123v318h322v-269q0 -97 -24 -167.5t-71.5 -114.5t-114.5 -66t-157 -23z" />
<glyph unicode="-" horiz-adv-x="809" d="M99 470v290h612v-290h-612z" />
<glyph unicode="." horiz-adv-x="567" d="M123 0v318h322v-318h-322z" />
<glyph unicode="/" horiz-adv-x="1052" d="M-55 -254l879 1839h257l-880 -1839h-256z" />
<glyph unicode="0" horiz-adv-x="1450" d="M108 695q0 120 28.5 229.5t83 198.5t129.5 154.5t172.5 101t206.5 35.5q135 0 250.5 -55t195 -151t124 -228.5t44.5 -284.5q0 -120 -28 -229.5t-83 -198t-129.5 -154t-172 -101.5t-206.5 -36q-137 0 -252.5 55t-195 151.5t-123.5 229t-44 283.5zM421 695 q0 -126 38 -226.5t108 -158.5t161 -58q67 0 124 33.5t95.5 92.5t60 140.5t21.5 176.5q0 126 -38 227t-108.5 159t-159.5 58q-90 0 -159 -57t-106 -157.5t-37 -229.5z" />
<glyph unicode="1" horiz-adv-x="838" d="M48 1281l399 120h209v-1401h-302v1090l-242 -59z" />
<glyph unicode="2" horiz-adv-x="1236" d="M97 0v242l464 380q69 57 110.5 96.5t72.5 79.5t43.5 77t12.5 80q0 86 -51 133.5t-135 47.5q-78 0 -140.5 -43t-143.5 -143l-215 172q55 74 105 124.5t112 89t136 56.5t165 18q217 0 348.5 -117.5t131.5 -314.5q0 -58 -9.5 -107t-31.5 -94.5t-49 -83t-72.5 -82t-90 -81.5 t-113.5 -91l-226 -175h605v-264h-1029z" />
<glyph unicode="3" horiz-adv-x="1232" d="M76 216l210 201q49 -56 98 -91.5t109 -55.5t129 -20q88 0 142.5 46.5t54.5 126.5q0 56 -32.5 96t-94 60t-146.5 20h-127l-47 195l331 334h-546v263h939v-231l-351 -336q60 -10 111.5 -27.5t101 -49t84 -74t55.5 -104.5t21 -138q0 -98 -35 -182t-98.5 -144.5t-158 -94.5 t-208.5 -34q-338 0 -542 240z" />
<glyph unicode="4" horiz-adv-x="1368" d="M61 516l763 885h259v-853h187v-248h-187v-300h-292v300h-679zM421 548h370v434z" />
<glyph unicode="5" horiz-adv-x="1251" d="M85 184l186 221q83 -75 163 -113t168 -38q109 0 170.5 51.5t61.5 145.5q0 59 -31 101.5t-86.5 64.5t-128.5 22q-111 0 -232 -51l-178 117l40 686h855v-269h-592l-16 -240q98 24 183 24q83 0 154.5 -16t133 -51t105.5 -86.5t68.5 -127t24.5 -168.5q0 -146 -65 -255 t-184.5 -167.5t-278.5 -58.5q-303 0 -521 208z" />
<glyph unicode="6" horiz-adv-x="1314" d="M108 656q0 130 23 243.5t72 208.5t120 163t171.5 105.5t222.5 37.5q56 0 106 -6.5t93 -19t84.5 -32t77.5 -42.5t74 -53l-161 -236q-75 58 -137.5 84.5t-146.5 26.5q-63 0 -113.5 -24.5t-84.5 -68t-54.5 -101t-27.5 -127.5q64 42 129.5 65.5t158.5 23.5q104 0 193 -29 t155 -84t103.5 -140.5t37.5 -193.5q0 -140 -69.5 -250t-190.5 -170.5t-271 -60.5q-132 0 -229 37t-171 112q-81 81 -123 206t-42 325zM419 445q0 -90 65.5 -148t177.5 -58q111 0 174.5 57t63.5 151q0 44 -16.5 81.5t-47.5 64.5t-77 42t-101 15q-75 0 -129 -26t-82 -72 t-28 -107z" />
<glyph unicode="7" horiz-adv-x="1228" d="M135 1126v265h1001v-231l-624 -1160h-345l622 1126h-654z" />
<glyph unicode="8" horiz-adv-x="1251" d="M89 385q0 124 55.5 203.5t169.5 132.5q-86 53 -131.5 126t-45.5 182q0 79 35.5 149t98.5 121.5t155 81t200 29.5q86 0 163 -19t136 -53.5t102 -82t65.5 -106.5t22.5 -124q0 -72 -22.5 -130.5t-60 -99t-94.5 -74.5q74 -39 121.5 -81.5t75 -105.5t27.5 -145 q0 -126 -70 -219.5t-191 -141t-275 -47.5t-275.5 49t-191.5 141.5t-70 213.5zM385 405q0 -73 65 -122.5t176 -49.5t175.5 49.5t64.5 126.5q0 79 -67 125t-173 46q-107 0 -174 -46.5t-67 -128.5zM427 993q0 -74 54.5 -122t144.5 -48q59 0 104.5 22t69.5 61t24 89 q0 44 -23 80.5t-69 59.5t-106 23q-91 0 -145 -47.5t-54 -117.5z" />
<glyph unicode="9" horiz-adv-x="1314" d="M112 927q0 84 24.5 158.5t71.5 134.5t111.5 103.5t147 67t175.5 23.5q138 0 229 -34.5t172 -115.5q79 -80 122 -205.5t43 -323.5q0 -169 -40 -308.5t-115.5 -240t-191.5 -155.5t-262 -55q-142 0 -251 42.5t-205 122.5l161 232q77 -62 147.5 -90.5t156.5 -28.5 q83 0 144.5 40.5t95 110.5t42.5 165q-113 -96 -282 -96q-228 0 -362 120.5t-134 332.5zM415 938q0 -62 29 -109t84 -73.5t130 -26.5q74 0 128.5 27t82 74.5t27.5 109.5q0 46 -16.5 85t-47.5 67.5t-77.5 44t-102.5 15.5q-112 0 -174.5 -58.5t-62.5 -155.5z" />
<glyph unicode=":" horiz-adv-x="587" d="M133 0v318h322v-318h-322zM133 747v318h322v-318h-322z" />
<glyph unicode=";" horiz-adv-x="587" d="M61 -197q97 10 146 54.5t49 120.5v22h-123v318h322v-269q0 -191 -92.5 -279.5t-275.5 -91.5zM133 747v318h322v-318h-322z" />
<glyph unicode="&#x3c;" horiz-adv-x="1270" d="M135 563v273l961 421v-279l-671 -277l671 -276v-284z" />
<glyph unicode="=" horiz-adv-x="1270" d="M165 304v274h942v-274h-942zM165 821v273h942v-273h-942z" />
<glyph unicode="&#x3e;" horiz-adv-x="1270" d="M175 141v280l671 276l-671 277v283l961 -421v-273z" />
<glyph unicode="?" horiz-adv-x="1080" d="M40 1194q195 214 487 214q107 0 195.5 -27.5t151.5 -79t98 -130.5t35 -178q0 -61 -14 -113.5t-40 -92.5t-60.5 -71.5t-79.5 -55t-93 -39.5t-104 -27l-22 -122h-203l-46 322l11 10q182 7 264.5 53.5t82.5 131.5q0 67 -47.5 104t-134.5 37q-162 0 -299 -137zM326 0v318h322 v-318h-322z" />
<glyph unicode="@" horiz-adv-x="1946" d="M106 544q0 117 30.5 229t86 207.5t135.5 176.5t175.5 137.5t209 88t233.5 31.5q119 0 232.5 -30t208 -83t174 -127.5t134.5 -161t85.5 -185.5t30.5 -199q0 -122 -31 -218t-85 -156.5t-125 -92.5t-154 -32q-200 0 -303 119q-133 -119 -295 -119q-76 0 -142.5 27 t-115.5 75.5t-77 121t-28 159.5q0 82 23.5 159t66 138t97.5 106.5t121.5 70.5t135.5 25q176 0 275 -135l22 106l234 -38l-93 -535q-6 -29 -6 -62q0 -36 17 -64t50 -44.5t77 -16.5q110 0 181.5 107t71.5 299q0 78 -20 154.5t-57.5 146t-89.5 131.5t-120 112t-144.5 86.5 t-166.5 56.5t-184 20q-165 0 -312 -63t-250.5 -169t-164 -252t-60.5 -307q0 -162 60 -307t165 -250.5t255 -167t322 -61.5q143 0 257 32t230 100l40 -63q-246 -149 -527 -149q-125 0 -241.5 31.5t-213.5 87.5t-177.5 136t-136 175.5t-86 207t-30.5 228.5zM731 527 q0 -91 51.5 -142t135.5 -51q95 0 165.5 83t70.5 203q0 84 -51.5 135t-133.5 51q-98 0 -168 -80.5t-70 -198.5z" />
<glyph unicode="A" horiz-adv-x="1568" d="M48 0l596 1401h281l597 -1401h-320l-127 312h-588l-127 -312h-312zM596 582h369l-184 451z" />
<glyph unicode="B" horiz-adv-x="1433" d="M167 0v1391h646q239 0 363 -123q96 -96 96 -241q0 -197 -184 -299q63 -24 109.5 -53.5t81.5 -71t52.5 -97t17.5 -125.5q0 -124 -65 -211t-181 -128.5t-275 -41.5h-661zM465 268h363q104 0 160.5 38t56.5 117q0 72 -56 111.5t-170 39.5h-354v-306zM465 828h282 q220 0 220 152q0 68 -51.5 105t-148.5 37h-302v-294z" />
<glyph unicode="C" horiz-adv-x="1465" d="M106 695q0 148 53.5 279.5t148 229t230.5 154t292 56.5q95 0 175.5 -16.5t145.5 -49.5t114.5 -70t103.5 -90l-183 -210q-89 80 -167.5 117t-190.5 37q-86 0 -161.5 -34.5t-128 -93t-83 -139t-30.5 -170.5q0 -118 50.5 -218t143.5 -159.5t209 -59.5q77 0 142.5 21.5 t114 54t109.5 87.5l195 -209q-112 -120 -244.5 -178t-325.5 -58q-151 0 -284 56t-227 152t-148 229t-54 282z" />
<glyph unicode="D" horiz-adv-x="1552" d="M167 0v1391h542q161 0 299.5 -53.5t234.5 -146t150.5 -221t54.5 -275.5q0 -145 -54.5 -273t-150.5 -221t-234.5 -147t-299.5 -54h-542zM472 276h237q188 0 303.5 116t115.5 303q0 186 -116 303t-303 117h-237v-839z" />
<glyph unicode="E" horiz-adv-x="1330" d="M167 0v1391h1048v-273h-745v-282h656v-271h-656v-292h756v-273h-1059z" />
<glyph unicode="F" horiz-adv-x="1302" d="M167 0v1391h1059v-278h-754v-296h664v-279h-664v-538h-305z" />
<glyph unicode="G" horiz-adv-x="1556" d="M106 695q0 147 55 279.5t150.5 229t232 153.5t290.5 57q123 0 221.5 -22.5t173.5 -62.5t151 -105l-192 -233q-88 73 -169 107t-195 34q-109 0 -201 -58.5t-145 -159t-53 -219.5q0 -125 53.5 -226t149.5 -158t218 -57q171 0 288 84v198h-308v264h605v-603 q-260 -221 -595 -221q-160 0 -296.5 54t-231.5 149.5t-148.5 228.5t-53.5 287z" />
<glyph unicode="H" horiz-adv-x="1509" d="M167 0v1391h305v-551h565v551h305v-1391h-305v558h-565v-558h-305z" />
<glyph unicode="I" horiz-adv-x="667" d="M180 0v1391h307v-1391h-307z" />
<glyph unicode="J" horiz-adv-x="1120" d="M28 189l192 215q63 -70 124 -105t130 -35q90 0 139 56.5t49 174.5v896h314v-910q0 -239 -132 -371q-129 -129 -361 -129q-280 0 -455 208z" />
<glyph unicode="K" horiz-adv-x="1450" d="M167 0v1391h305v-608l565 608h369l-566 -591l593 -800h-368l-432 592l-161 -167v-425h-305z" />
<glyph unicode="L" horiz-adv-x="1228" d="M167 0v1391h305v-1113h694v-278h-999z" />
<glyph unicode="M" horiz-adv-x="1723" d="M167 0v1391h330l365 -589l366 589h330v-1391h-305v908l-391 -594h-7l-388 588v-902h-300z" />
<glyph unicode="N" horiz-adv-x="1568" d="M167 0v1391h282l652 -857v857h302v-1391h-260l-674 884v-884h-302z" />
<glyph unicode="O" horiz-adv-x="1687" d="M106 695q0 147 56 279.5t152.5 229t235 153.5t296 57t295.5 -56.5t234.5 -152.5t152 -228.5t55.5 -281.5q0 -146 -56 -278.5t-153 -229.5t-236 -154t-296.5 -57t-295 56.5t-234 153t-151.5 229t-55 280.5zM425 695q0 -59 14 -115t40 -104t64 -88.5t84 -69t102 -44.5 t117 -16q120 0 216.5 58.5t149 158.5t52.5 220q0 119 -53.5 218.5t-151 159t-218 59.5t-216.5 -58.5t-148 -158t-52 -220.5z" />
<glyph unicode="P" horiz-adv-x="1326" d="M167 0v1391h568q123 0 223 -35.5t168 -99t105 -153.5t37 -197q0 -118 -44 -212t-120.5 -154t-178.5 -91.5t-220 -31.5h-233v-417h-305zM472 690h243q75 0 130.5 28t83.5 76t28 110q0 101 -65.5 156t-182.5 55h-237v-425z" />
<glyph unicode="Q" horiz-adv-x="1687" d="M106 695q0 147 56 279.5t152.5 229t235 153.5t296 57t295.5 -56.5t234.5 -152.5t152 -228.5t55.5 -281.5q0 -220 -123 -399l143 -121l-195 -217l-153 137q-185 -119 -413 -119q-158 0 -295.5 56.5t-234 153t-151.5 229t-55 280.5zM425 695q0 -59 14 -115t40 -104 t64 -88.5t84 -69t102 -44.5t117 -16q100 0 183 38l-227 193l195 218l229 -206q38 82 38 194q0 119 -53.5 218.5t-151 159t-218 59.5t-216.5 -58.5t-148 -158t-52 -220.5z" />
<glyph unicode="R" horiz-adv-x="1435" d="M167 0v1391h635q264 0 406 -142q119 -119 119 -322q0 -109 -38.5 -196t-103.5 -143.5t-156 -90.5l340 -497h-358l-302 445h-237v-445h-305zM472 715h311q73 0 126.5 25t81 70t27.5 106q0 97 -63.5 148t-177.5 51h-305v-400z" />
<glyph unicode="S" horiz-adv-x="1270" d="M72 203l180 216q100 -82 201 -125.5t214 -43.5q95 0 148 35.5t53 99.5q0 41 -21.5 68t-82 53.5t-176.5 56.5q-51 13 -90 24t-81 26t-73.5 30.5t-63 35.5t-54 42t-42 50.5t-31.5 61t-19 72.5t-7 86q0 125 62.5 220.5t173 147t251.5 51.5q297 0 516 -176l-159 -231 q-199 138 -361 138q-85 0 -132 -35t-47 -90q0 -29 8.5 -49t27 -37.5t55.5 -33t85 -30t124 -34.5q89 -23 155 -48.5t122 -60.5t90.5 -78.5t54 -102t19.5 -131.5q0 -135 -65.5 -233.5t-180 -147.5t-264.5 -49q-162 0 -315 56t-275 166z" />
<glyph unicode="T" horiz-adv-x="1287" d="M68 1109v282h1151v-282h-423v-1109h-305v1109h-423z" />
<glyph unicode="U" horiz-adv-x="1501" d="M146 596v795h305v-787q0 -167 79 -255.5t221 -88.5t221 85.5t79 248.5v797h306v-785q0 -125 -27.5 -227t-79.5 -176t-127 -125t-169.5 -75.5t-206.5 -24.5q-285 0 -443 157.5t-158 460.5z" />
<glyph unicode="V" horiz-adv-x="1489" d="M48 1391h337l364 -980l364 980h329l-562 -1401h-270z" />
<glyph unicode="W" horiz-adv-x="2228" d="M59 1391h328l288 -942l312 946h262l313 -946l288 942h319l-474 -1401h-266l-314 910l-315 -910h-266z" />
<glyph unicode="X" horiz-adv-x="1454" d="M61 0l485 707l-465 684h358l292 -451l294 451h348l-465 -680l485 -711h-358l-312 477l-314 -477h-348z" />
<glyph unicode="Y" horiz-adv-x="1422" d="M24 1391h357l332 -559l338 559h348l-535 -837v-554h-306v548z" />
<glyph unicode="Z" horiz-adv-x="1405" d="M125 0v233l765 889h-741v269h1134v-233l-764 -890h764v-268h-1158z" />
<glyph unicode="[" horiz-adv-x="923" d="M165 -258v1649h641v-237h-351v-1176h351v-236h-641z" />
<glyph unicode="\" horiz-adv-x="1052" d="M-28 1585h257l880 -1839h-256z" />
<glyph unicode="]" horiz-adv-x="923" d="M117 -22h352v1176h-352v237h642v-1649h-642v236z" />
<glyph unicode="^" d="M99 980l295 411h205l295 -411h-219l-180 232l-181 -232h-215z" />
<glyph unicode="_" horiz-adv-x="1191" d="M-4 -87h1200v-231h-1200v231z" />
<glyph unicode="`" d="M218 1420l261 114l224 -352h-231z" />
<glyph unicode="a" horiz-adv-x="1175" d="M72 309q0 114 55 191.5t150 113.5t224 36q133 0 259 -44v18q0 94 -57.5 144.5t-169.5 50.5q-81 0 -147.5 -14.5t-146.5 -44.5l-76 231q97 43 192 64.5t221 21.5q241 0 360 -120q115 -114 115 -339v-618h-292v115q-122 -134 -322 -134q-102 0 -183.5 36.5t-131.5 112.5 t-50 179zM364 318q0 -40 21 -69.5t58 -44.5t86 -15q105 0 170 52t65 134v54q-84 40 -192 40q-98 0 -153 -39t-55 -112z" />
<glyph unicode="b" horiz-adv-x="1340" d="M135 0v1450h302v-538q129 172 332 172q63 0 122.5 -16t113.5 -47t99.5 -79t78.5 -108t51.5 -138t18.5 -165q0 -104 -26 -193.5t-71.5 -154.5t-107 -111t-132.5 -68.5t-147 -22.5q-111 0 -190.5 42.5t-141.5 115.5v-139h-302zM433 531q0 -130 75 -212t184 -82 q108 0 184 82t76 215q0 65 -21 120.5t-56.5 93.5t-83 59t-99.5 21q-109 0 -184 -82.5t-75 -214.5z" />
<glyph unicode="c" horiz-adv-x="1133" d="M83 531q0 112 42 214t115 176.5t178 118.5t224 44q142 0 242.5 -47.5t180.5 -138.5l-177 -179q-58 53 -112.5 79t-136.5 26q-112 0 -185 -85.5t-73 -207.5q0 -126 75 -210t196 -84q71 0 127.5 28t116.5 84l177 -178q-42 -46 -83 -79t-93 -60.5t-117 -41.5t-143 -14 t-151.5 19.5t-134 55.5t-111 87t-85 112t-53.5 133t-19 148z" />
<glyph unicode="d" horiz-adv-x="1340" d="M87 534q0 130 40.5 236t108 173.5t154.5 104t182 36.5q112 0 191 -42.5t141 -116.5v525h302v-1450h-302v153q-129 -172 -332 -172q-62 0 -122 16t-114 47t-99.5 79t-78.5 108t-52 138t-19 165zM389 531q0 -130 76.5 -212t184.5 -82t183 82.5t75 214.5q0 130 -75 212 t-183 82q-109 0 -185 -82t-76 -215z" />
<glyph unicode="e" horiz-adv-x="1217" d="M83 531q0 112 39.5 214t108 176.5t167.5 118.5t212 44q104 0 190.5 -31t146 -85t101 -128t61 -158t19.5 -176q0 -23 -4 -79h-741q22 -102 90.5 -155.5t170.5 -53.5q75 0 135 25.5t123 84.5l173 -153q-160 -199 -436 -199q-159 0 -285.5 69t-198.5 196t-72 290zM379 616 h455q-13 103 -72 164.5t-152 61.5q-92 0 -152 -60.5t-79 -165.5z" />
<glyph unicode="f" horiz-adv-x="758" d="M61 806v248h126v68q0 173 86 258q83 84 243 84q123 0 215 -29v-251q-71 26 -137 26q-109 0 -109 -116v-42h244v-246h-240v-806h-302v806h-126z" />
<glyph unicode="g" horiz-adv-x="1340" d="M87 588q0 115 39.5 211t106 157t151 94.5t177.5 33.5q114 0 193.5 -41t149.5 -118v140h302v-824q0 -285 -135 -419q-144 -144 -459 -144q-262 0 -471 112l103 226q87 -49 173 -73t187 -24q304 0 304 290v51q-72 -87 -152.5 -130t-194.5 -43q-75 0 -145 21t-129.5 63.5 t-104 101.5t-70 140t-25.5 175zM389 584q0 -109 73.5 -177.5t185.5 -68.5t186 69.5t74 180.5q0 108 -74 177t-186 69t-185.5 -69.5t-73.5 -180.5z" />
<glyph unicode="h" horiz-adv-x="1236" d="M135 0v1450h302v-536q30 37 58 64.5t66 53.5t85.5 39t102.5 13q113 0 195 -47.5t124.5 -136t42.5 -210.5v-690h-302v594q0 106 -48 161.5t-135 55.5q-58 0 -100 -24.5t-65.5 -73.5t-23.5 -119v-594h-302z" />
<glyph unicode="i" horiz-adv-x="599" d="M141 1182v268h318v-268h-318zM149 0v1065h302v-1065h-302z" />
<glyph unicode="j" horiz-adv-x="599" d="M-22 -76q36 -5 64 -5q107 0 107 123v1023h302v-1048q0 -341 -341 -341q-70 0 -132 12v236zM141 1182v268h318v-268h-318z" />
<glyph unicode="k" horiz-adv-x="1175" d="M135 0v1450h302v-773l354 388h361l-405 -419l419 -646h-345l-279 436l-105 -112v-324h-302z" />
<glyph unicode="l" horiz-adv-x="599" d="M149 0v1450h302v-1450h-302z" />
<glyph unicode="m" horiz-adv-x="1886" d="M135 0v1065h302v-151q23 29 45 52t51.5 46t61 38.5t71.5 24.5t85 9q103 0 180.5 -43.5t119.5 -124.5q143 168 350 168q170 0 265 -100.5t95 -289.5v-694h-303v594q0 106 -45.5 161.5t-131.5 55.5t-134 -56t-48 -161v-594h-303v594q0 106 -45.5 161.5t-130.5 55.5 q-86 0 -134.5 -56t-48.5 -161v-594h-302z" />
<glyph unicode="n" horiz-adv-x="1236" d="M135 0v1065h302v-151q30 37 58 64.5t66 53.5t85.5 39t102.5 13q113 0 195 -47.5t124.5 -136t42.5 -210.5v-690h-302v594q0 106 -48 161.5t-135 55.5q-58 0 -100 -24.5t-65.5 -73.5t-23.5 -119v-594h-302z" />
<glyph unicode="o" horiz-adv-x="1318" d="M83 531q0 113 44.5 215t120.5 176.5t184 118t230 43.5q121 0 228 -43t182.5 -117t119.5 -176.5t44 -216.5t-44 -216t-120.5 -176.5t-184 -118.5t-229.5 -44q-82 0 -157.5 19.5t-138.5 55t-115 86.5t-88 112t-56 133t-20 149zM381 531q0 -79 35 -146t99.5 -107.5 t146.5 -40.5q125 0 200.5 84.5t75.5 209.5q0 78 -34.5 145t-99.5 107.5t-146 40.5q-126 0 -201.5 -84.5t-75.5 -208.5z" />
<glyph unicode="p" horiz-adv-x="1340" d="M135 -318v1383h302v-153q129 172 332 172q63 0 122.5 -16t113.5 -47t99.5 -79t78.5 -108t51.5 -138t18.5 -165q0 -104 -26 -193.5t-71.5 -154.5t-107 -111t-132.5 -68.5t-147 -22.5q-111 0 -190.5 42.5t-141.5 115.5v-457h-302zM433 531q0 -130 75 -212t184 -82 q108 0 184 82t76 215q0 65 -21 120.5t-56.5 93.5t-83 59t-99.5 21q-109 0 -184 -82.5t-75 -214.5z" />
<glyph unicode="q" horiz-adv-x="1340" d="M87 534q0 130 40.5 236t108 173.5t154.5 104t182 36.5q112 0 191 -42.5t141 -116.5v140h302v-1383h-302v471q-129 -172 -332 -172q-62 0 -122 16t-114 47t-99.5 79t-78.5 108t-52 138t-19 165zM389 531q0 -130 76.5 -212t184.5 -82t183 82.5t75 214.5q0 130 -75 212 t-183 82q-109 0 -185 -82t-76 -215z" />
<glyph unicode="r" horiz-adv-x="830" d="M135 0v1065h302v-214q49 117 131 178q74 56 186 56q11 0 23 -1v-315h-17q-153 0 -238 -94t-85 -281v-394h-302z" />
<glyph unicode="s" horiz-adv-x="997" d="M51 141l129 199q86 -62 173.5 -95t162.5 -33q64 0 96 22t32 62q0 11 -3.5 20.5t-11.5 17.5t-16 15t-23 14t-26.5 11.5t-31.5 11t-33.5 11t-37.5 11.5t-38 11q-52 15 -91 30t-84.5 42t-74 59.5t-48 82t-19.5 110.5q0 105 53 183t140 116.5t196 38.5q67 0 137 -15 t136.5 -42.5t123.5 -66.5l-115 -208q-171 99 -288 99q-54 0 -83 -21t-29 -56q0 -13 6 -24.5t20.5 -22t27.5 -18.5t39 -18t42 -16t50 -17q21 -7 32 -11q37 -12 65 -22.5t63.5 -27.5t61 -34t52 -42t43 -52.5t27 -64t10.5 -77.5q0 -87 -31 -153.5t-86.5 -107.5t-129 -61.5 t-161.5 -20.5q-117 0 -236 39.5t-221 120.5z" />
<glyph unicode="t" horiz-adv-x="823" d="M57 806v259h127v272h303v-272h250v-259h-250v-455q0 -26 5.5 -45.5t17.5 -32t30 -19t44 -6.5q81 0 149 38v-242q-103 -61 -238 -61q-73 0 -127 15.5t-97 51t-65 99t-22 153.5v504h-127z" />
<glyph unicode="u" horiz-adv-x="1236" d="M127 375v690h302v-595q0 -53 12.5 -93.5t36 -67.5t57.5 -41t77 -14q88 0 138 55.5t50 160.5v595h303v-1065h-303v151q-29 -37 -57 -64.5t-66 -53.5t-85.5 -39t-102.5 -13q-113 0 -195 47.5t-124.5 136.5t-42.5 210z" />
<glyph unicode="v" horiz-adv-x="1191" d="M40 1065h320l238 -714l240 714h314l-419 -1073h-274z" />
<glyph unicode="w" horiz-adv-x="1710" d="M48 1065h306l171 -646l201 650h260l202 -652l175 648h300l-332 -1073h-272l-204 654l-209 -654h-271z" />
<glyph unicode="x" horiz-adv-x="1160" d="M46 0l373 540l-360 525h324l199 -310l201 310h316l-360 -519l376 -546h-324l-215 332l-214 -332h-316z" />
<glyph unicode="y" horiz-adv-x="1191" d="M40 1065h320l242 -725l232 725h314l-409 -1091q-62 -164 -139 -231t-211 -67q-142 0 -268 74l101 218q69 -42 129 -42q39 0 63 15.5t43 54.5z" />
<glyph unicode="z" horiz-adv-x="1118" d="M99 0v212l551 609h-533v244h908v-212l-553 -609h553v-244h-926z" />
<glyph unicode="{" horiz-adv-x="972" d="M97 455v231h52q119 0 169 45t50 159q0 18 -3 70.5t-3 66.5q0 80 21.5 139t74 109t143.5 85.5t225 59.5l54 -201q-79 -22 -127 -44t-73.5 -51t-34 -60t-8.5 -80q0 -20 3.5 -73.5t3.5 -74.5q0 -71 -24.5 -123.5t-69 -86t-113.5 -56.5q104 -34 155.5 -97.5t51.5 -168.5 q0 -21 -3.5 -74t-3.5 -73q0 -49 8.5 -80.5t34 -60.5t73.5 -51t127 -45l-54 -200q-134 23 -225 59t-143.5 86.5t-74 109.5t-21.5 138q0 15 3 67.5t3 69.5q0 115 -50 160t-169 45h-52z" />
<glyph unicode="|" horiz-adv-x="694" d="M229 -254v1839h238v-1839h-238z" />
<glyph unicode="}" horiz-adv-x="972" d="M93 -80q79 23 127 45t73.5 51t34 60.5t8.5 80.5q0 20 -3 73t-3 74q0 105 51.5 168.5t154.5 97.5q-103 34 -154.5 97t-51.5 169q0 21 3 74.5t3 73.5q0 39 -5.5 65.5t-19.5 52t-41.5 44.5t-70 37t-106.5 36l54 201q135 -24 226 -59.5t143.5 -85.5t74 -109t21.5 -139 q0 -14 -3 -66.5t-3 -70.5q0 -46 8 -80.5t24 -58.5t42.5 -38t61.5 -20.5t82 -6.5h52v-231h-52q-59 0 -99 -10t-67.5 -34t-39.5 -63t-12 -98q0 -17 3 -69.5t3 -67.5q0 -79 -21.5 -138t-74 -109.5t-143.5 -86.5t-226 -59z" />
<glyph unicode="~" horiz-adv-x="1012" d="M97 495q37 136 93 205t153 69q42 0 89 -12t80.5 -26.5t70 -26.5t59.5 -12q43 0 66.5 22t46.5 75l161 -50q-38 -137 -93.5 -205.5t-153.5 -68.5q-52 0 -111.5 19t-108.5 38.5t-77 19.5q-44 0 -67.5 -22t-46.5 -75z" />
<glyph unicode="&#xa2;" horiz-adv-x="1153" d="M93 705q0 76 19 147.5t53.5 132.5t85 112t111.5 86.5t135 55.5t153 20h12l28 144h206l-34 -175q119 -41 215 -147l-179 -193q-54 54 -98 75l-108 -550q107 13 214 112l171 -174q-84 -93 -186 -145t-239 -55l-32 -163h-207l38 194q-160 59 -259 201.5t-99 321.5zM385 705 q0 -84 33 -151.5t94 -104.5l108 550q-102 -9 -168.5 -92.5t-66.5 -201.5z" />
<glyph unicode="&#xa3;" horiz-adv-x="1278" d="M119 0v201l152 49v281h-152v252h152v161q0 221 118 339q127 127 352 127q81 0 150 -16.5t123 -49t95 -71.5t79 -91l-233 -187q-26 34 -49.5 57.5t-49 40.5t-52.5 25t-59 8q-70 0 -114 -43q-51 -52 -51 -147v-153h453v-252h-453v-267h604v-264h-1065z" />
<glyph unicode="&#xa5;" horiz-adv-x="1361" d="M28 1391h351l307 -515l307 515h342l-429 -656h288v-214h-366v-123h366v-216h-366v-182h-294v182h-365v216h365v123h-365v214h284z" />
<glyph unicode="&#xa8;" d="M139 1182v268h290v-268h-290zM565 1182v268h290v-268h-290z" />
<glyph unicode="&#xa9;" horiz-adv-x="1648" d="M106 695q0 145 56 277.5t152 229.5t230 154.5t282.5 57.5t282 -57t228.5 -153.5t150.5 -229t55.5 -279.5q0 -144 -56 -276.5t-152 -230t-230 -155t-282.5 -57.5t-282 57t-228.5 154t-150.5 229.5t-55.5 278.5zM189 692q0 -104 31 -201t88.5 -175.5t134.5 -137t175 -91 t205 -32.5q133 0 252 51t203 137.5t133 205.5t49 250q0 130 -48.5 247.5t-132 202.5t-201.5 135.5t-252 50.5q-133 0 -252 -51t-203 -137t-133 -205t-49 -250zM441 705q0 108 49.5 198t141.5 144t206 54q103 0 173.5 -30t129.5 -87l-110 -127q-95 85 -193 85q-94 0 -156 -69 t-62 -170q0 -47 16 -90t44.5 -75t69.5 -50.5t88 -18.5q59 0 103 21.5t94 67.5l112 -111q-43 -45 -85 -74t-100 -46.5t-130 -17.5q-110 0 -200 52.5t-140.5 143t-50.5 200.5z" />
<glyph unicode="&#xab;" horiz-adv-x="1280" d="M81 525v15l334 446l231 -112l-259 -340l259 -339l-231 -115zM622 525v15l333 446l231 -112l-259 -340l259 -339l-231 -115z" />
<glyph unicode="&#xad;" horiz-adv-x="809" d="M99 470v290h612v-290h-612z" />
<glyph unicode="&#xae;" horiz-adv-x="1648" d="M106 695q0 145 56 277.5t152 229.5t230 154.5t282.5 57.5t282 -57t228.5 -153.5t150.5 -229t55.5 -279.5q0 -144 -56 -276.5t-152 -230t-230 -155t-282.5 -57.5t-282 57t-228.5 154t-150.5 229.5t-55.5 278.5zM189 692q0 -104 31 -201t88.5 -175.5t134.5 -137t175 -91 t205 -32.5q133 0 252 51t203 137.5t133 205.5t49 250q0 130 -48.5 247.5t-132 202.5t-201.5 135.5t-252 50.5q-133 0 -252 -51t-203 -137t-133 -205t-49 -250zM529 334v765h339q153 0 237 -83q63 -63 63 -172q0 -89 -44.5 -148.5t-120.5 -87.5l187 -274h-197l-167 246h-129 v-246h-168zM697 726h169q63 0 97 30t34 82q0 55 -35.5 83.5t-99.5 28.5h-165v-224z" />
<glyph unicode="&#xb4;" d="M290 1182l224 352l261 -114l-254 -238h-231z" />
<glyph unicode="&#xb8;" d="M235 -239l176 258h222l-146 -362z" />
<glyph unicode="&#xbb;" horiz-adv-x="1280" d="M95 191l259 340l-259 339l231 116l334 -446v-15l-334 -445zM635 191l259 340l-259 339l231 116l334 -446v-15l-334 -445z" />
<glyph unicode="&#x2c6;" d="M110 1182l244 312h285l245 -312h-232l-157 131l-157 -131h-228z" />
<glyph unicode="&#x2da;" d="M256 1408v4q0 94 72.5 162.5t168.5 68.5t168 -68.5t72 -162.5v-4q0 -93 -72 -161.5t-168 -68.5t-168.5 68.5t-72.5 161.5zM373 1408q0 -32 16.5 -60t45 -44.5t62.5 -16.5q50 0 86.5 36t36.5 85v4q0 33 -16.5 61t-45 44.5t-61.5 16.5q-51 0 -87.5 -36t-36.5 -86v-4z" />
<glyph unicode="&#x2dc;" d="M87 1212q15 52 30.5 92.5t36.5 75.5t46 57.5t59 35.5t75 13q52 0 111.5 -19.5t108.5 -39t77 -19.5q44 0 67.5 22.5t46.5 74.5l161 -49q-18 -67 -38.5 -114t-49.5 -84.5t-68.5 -56.5t-89.5 -19q-53 0 -112 19.5t-108.5 38.5t-77.5 19q-43 0 -67 -22.5t-47 -74.5z" />
<glyph unicode="&#x401;" horiz-adv-x="1330" d="M167 0v1391h1048v-273h-745v-282h656v-271h-656v-292h756v-273h-1059zM328 1500v268h290v-268h-290zM753 1500v268h290v-268h-290z" />
<glyph unicode="&#x402;" horiz-adv-x="1723" d="M64 1120v271h1178v-271h-497v-320q175 114 377 114q140 0 247 -53t169 -157.5t62 -248.5q0 -119 -35.5 -211t-100 -149.5t-151 -87t-191.5 -29.5q-59 0 -120 10.5t-94 23.5l53 272q53 -8 88 -8q53 0 93.5 9t73.5 28t50 53.5t17 82.5q0 169 -238 169q-179 0 -300 -112 v-506h-304v1120h-377z" />
<glyph unicode="&#x403;" horiz-adv-x="1187" d="M167 0v1391h972v-276h-667v-1115h-305zM431 1500l225 352l260 -114l-254 -238h-231z" />
<glyph unicode="&#x404;" horiz-adv-x="1455" d="M106 695q0 148 53.5 279.5t148 229t230.5 154t292 56.5q91 0 170 -15.5t143.5 -46t115.5 -66t102 -82.5l-169 -211q-167 148 -364 148q-142 0 -248.5 -87t-143.5 -226h567v-254h-570q23 -94 77.5 -167t137 -115t180.5 -42q115 0 202.5 41t179.5 124l189 -205 q-111 -119 -248 -176.5t-332 -57.5q-151 0 -284 56t-227 152t-148 229t-54 282z" />
<glyph unicode="&#x405;" horiz-adv-x="1270" d="M72 203l180 216q100 -82 201 -125.5t214 -43.5q95 0 148 35.5t53 99.5q0 41 -21.5 68t-82 53.5t-176.5 56.5q-51 13 -90 24t-81 26t-73.5 30.5t-63 35.5t-54 42t-42 50.5t-31.5 61t-19 72.5t-7 86q0 125 62.5 220.5t173 147t251.5 51.5q297 0 516 -176l-159 -231 q-199 138 -361 138q-85 0 -132 -35t-47 -90q0 -29 8.5 -49t27 -37.5t55.5 -33t85 -30t124 -34.5q89 -23 155 -48.5t122 -60.5t90.5 -78.5t54 -102t19.5 -131.5q0 -135 -65.5 -233.5t-180 -147.5t-264.5 -49q-162 0 -315 56t-275 166z" />
<glyph unicode="&#x406;" horiz-adv-x="667" d="M180 0v1391h307v-1391h-307z" />
<glyph unicode="&#x407;" horiz-adv-x="667" d="M-24 1500v268h290v-268h-290zM180 0v1391h307v-1391h-307zM402 1500v268h290v-268h-290z" />
<glyph unicode="&#x408;" horiz-adv-x="1120" d="M28 189l192 215q63 -70 124 -105t130 -35q90 0 139 56.5t49 174.5v896h314v-910q0 -239 -132 -371q-129 -129 -361 -129q-280 0 -455 208z" />
<glyph unicode="&#x409;" horiz-adv-x="2216" d="M26 0l20 252q27 -4 47 -4q38 0 66.5 8t56.5 30.5t48 62t37.5 103.5t27.5 154t16 214t6 283v288h993v-473h297q239 0 374 -122.5t135 -328.5q0 -215 -142.5 -341t-386.5 -126h-582v1115h-402v-106q0 -201 -11 -353.5t-35 -267.5t-59 -192t-87 -124.5t-114 -68t-144 -20.5 q-93 0 -161 17zM1344 276h273q229 0 229 194q0 90 -58.5 138t-172.5 48h-271v-380z" />
<glyph unicode="&#x40a;" horiz-adv-x="2214" d="M167 0v1391h305v-519h565v519h305v-519h317q232 0 360.5 -116.5t128.5 -314.5q0 -140 -63 -240t-179 -150.5t-277 -50.5h-592v618h-565v-618h-305zM1342 276h287q71 0 118 19t70.5 58t23.5 100q0 165 -214 165h-285v-342z" />
<glyph unicode="&#x40b;" horiz-adv-x="1723" d="M64 1120v271h1178v-271h-497v-320q175 114 377 114q140 0 246.5 -50t169 -150.5t62.5 -239.5v-474h-305v345q0 87 -26 147.5t-79 93t-131 32.5q-96 0 -172.5 -26t-141.5 -86v-506h-304v1120h-377z" />
<glyph unicode="&#x40c;" horiz-adv-x="1450" d="M167 0v1391h305v-608l565 608h369l-566 -591l593 -800h-368l-432 592l-161 -167v-425h-305zM602 1500l224 352l260 -114l-254 -238h-230z" />
<glyph unicode="&#x40e;" horiz-adv-x="1457" d="M36 1391h341l378 -735l335 735h332l-534 -1075q-90 -179 -198.5 -258.5t-256.5 -79.5q-156 0 -300 81l119 225q74 -45 165 -45q103 0 175 110zM417 1797l177 32q42 -132 156.5 -132t157.5 132l176 -32q-21 -143 -108.5 -222t-224.5 -79t-225 79t-109 222z" />
<glyph unicode="&#x40f;" horiz-adv-x="1493" d="M167 0v1391h303v-1113h553v1113h304v-1391h-433v-290h-296v290h-431z" />
<glyph unicode="&#x410;" horiz-adv-x="1568" d="M48 0l596 1401h281l597 -1401h-320l-127 312h-588l-127 -312h-312zM596 582h369l-184 451z" />
<glyph unicode="&#x411;" horiz-adv-x="1414" d="M167 0v1391h1067v-276h-762v-243h368q232 0 360.5 -116.5t128.5 -314.5q0 -211 -137 -326t-381 -115h-644zM472 276h339q107 0 159.5 43.5t52.5 133.5q0 165 -214 165h-337v-342z" />
<glyph unicode="&#x412;" horiz-adv-x="1433" d="M167 0v1391h646q239 0 363 -123q96 -96 96 -241q0 -197 -184 -299q63 -24 109.5 -53.5t81.5 -71t52.5 -97t17.5 -125.5q0 -124 -65 -211t-181 -128.5t-275 -41.5h-661zM465 268h363q104 0 160.5 38t56.5 117q0 72 -56 111.5t-170 39.5h-354v-306zM465 828h282 q220 0 220 152q0 68 -51.5 105t-148.5 37h-302v-294z" />
<glyph unicode="&#x413;" horiz-adv-x="1187" d="M167 0v1391h972v-276h-667v-1115h-305z" />
<glyph unicode="&#x414;" horiz-adv-x="1528" d="M19 276h132q81 190 117 400t36 552v163h1011v-1115h167l-40 -566h-256v290h-870l-20 -290h-277v566zM472 276h537v839h-411v-141q0 -144 -15.5 -269t-42 -226.5t-68.5 -202.5z" />
<glyph unicode="&#x415;" horiz-adv-x="1330" d="M167 0v1391h1048v-273h-745v-282h656v-271h-656v-292h756v-273h-1059z" />
<glyph unicode="&#x416;" horiz-adv-x="2222" d="M17 0l551 789l-530 602h364l557 -650v650h305v-650l558 650h363l-530 -602l550 -789h-366l-393 568l-182 -198v-370h-305v370l-184 198l-392 -568h-366z" />
<glyph unicode="&#x417;" horiz-adv-x="1298" d="M53 209l163 212q180 -177 444 -177q101 0 167.5 44.5t66.5 122.5q0 83 -75 123t-201 40h-161v254h157q121 0 184.5 41t63.5 120q0 72 -62 114t-163 42q-122 0 -211.5 -39t-163.5 -115l-161 195q105 110 239.5 169t321.5 59q110 0 203.5 -28t159 -77.5t102.5 -118.5 t37 -149q0 -223 -224 -320q120 -38 190 -119.5t70 -207.5q0 -90 -37.5 -167t-105 -132.5t-167 -87t-219.5 -31.5q-211 0 -356 57t-262 176z" />
<glyph unicode="&#x418;" horiz-adv-x="1531" d="M167 0v1391h302v-912l612 912h284v-1391h-302v912l-608 -912h-288z" />
<glyph unicode="&#x419;" horiz-adv-x="1531" d="M167 0v1391h302v-912l612 912h284v-1391h-302v912l-608 -912h-288zM437 1797l177 32q43 -132 157 -132t156 132l178 -32q-21 -143 -109 -222t-225 -79t-224.5 79t-109.5 222z" />
<glyph unicode="&#x41a;" horiz-adv-x="1450" d="M167 0v1391h305v-608l565 608h369l-566 -591l593 -800h-368l-432 592l-161 -167v-425h-305z" />
<glyph unicode="&#x41b;" horiz-adv-x="1511" d="M26 0l20 252q27 -4 47 -4q38 0 66.5 8t56.5 30.5t48 62t37.5 103.5t27.5 154t16 214t6 283v288h993v-1391h-305v1115h-402v-106q0 -206 -11 -360.5t-35 -269.5t-59 -190.5t-87 -121.5t-113.5 -65t-144.5 -19q-93 0 -161 17z" />
<glyph unicode="&#x41c;" horiz-adv-x="1723" d="M167 0v1391h330l365 -589l366 589h330v-1391h-305v908l-391 -594h-7l-388 588v-902h-300z" />
<glyph unicode="&#x41d;" horiz-adv-x="1509" d="M167 0v1391h305v-551h565v551h305v-1391h-305v558h-565v-558h-305z" />
<glyph unicode="&#x41e;" horiz-adv-x="1687" d="M106 695q0 147 56 279.5t152.5 229t235 153.5t296 57t295.5 -56.5t234.5 -152.5t152 -228.5t55.5 -281.5q0 -146 -56 -278.5t-153 -229.5t-236 -154t-296.5 -57t-295 56.5t-234 153t-151.5 229t-55 280.5zM425 695q0 -59 14 -115t40 -104t64 -88.5t84 -69t102 -44.5 t117 -16q120 0 216.5 58.5t149 158.5t52.5 220q0 119 -53.5 218.5t-151 159t-218 59.5t-216.5 -58.5t-148 -158t-52 -220.5z" />
<glyph unicode="&#x41f;" horiz-adv-x="1493" d="M167 0v1391h1160v-1391h-306v1115h-549v-1115h-305z" />
<glyph unicode="&#x420;" horiz-adv-x="1326" d="M167 0v1391h568q123 0 223 -35.5t168 -99t105 -153.5t37 -197q0 -118 -44 -212t-120.5 -154t-178.5 -91.5t-220 -31.5h-233v-417h-305zM472 690h243q75 0 130.5 28t83.5 76t28 110q0 101 -65.5 156t-182.5 55h-237v-425z" />
<glyph unicode="&#x421;" horiz-adv-x="1465" d="M106 695q0 148 53.5 279.5t148 229t230.5 154t292 56.5q95 0 175.5 -16.5t145.5 -49.5t114.5 -70t103.5 -90l-183 -210q-89 80 -167.5 117t-190.5 37q-86 0 -161.5 -34.5t-128 -93t-83 -139t-30.5 -170.5q0 -118 50.5 -218t143.5 -159.5t209 -59.5q77 0 142.5 21.5 t114 54t109.5 87.5l195 -209q-112 -120 -244.5 -178t-325.5 -58q-151 0 -284 56t-227 152t-148 229t-54 282z" />
<glyph unicode="&#x422;" horiz-adv-x="1287" d="M68 1109v282h1151v-282h-423v-1109h-305v1109h-423z" />
<glyph unicode="&#x423;" horiz-adv-x="1457" d="M36 1391h341l378 -735l335 735h332l-534 -1075q-90 -179 -198.5 -258.5t-256.5 -79.5q-156 0 -300 81l119 225q74 -45 165 -45q103 0 175 110z" />
<glyph unicode="&#x424;" horiz-adv-x="1850" d="M83 713q0 130 48.5 241t136.5 191.5t218 126t287 45.5v127h306v-127q156 0 286 -45.5t218 -126t136.5 -192.5t48.5 -242q0 -131 -48 -243.5t-135.5 -195.5t-218 -130t-287.5 -47v-150h-306v150q-157 0 -288 47t-218.5 130t-135.5 196.5t-48 244.5zM398 707 q0 -155 103 -247t272 -92v677q-169 0 -272 -92.5t-103 -245.5zM1079 368q169 0 271 92t102 247q0 153 -102.5 245.5t-270.5 92.5v-677z" />
<glyph unicode="&#x425;" horiz-adv-x="1454" d="M61 0l485 707l-465 684h358l292 -451l294 451h348l-465 -680l485 -711h-358l-312 477l-314 -477h-348z" />
<glyph unicode="&#x426;" horiz-adv-x="1539" d="M167 0v1391h305v-1115h549v1115h306v-1115h165l-40 -566h-254v290h-1031z" />
<glyph unicode="&#x427;" horiz-adv-x="1445" d="M139 882v509h306v-420q0 -270 224 -270q90 0 172.5 25.5t132.5 64.5v600h305v-1391h-305v519q-212 -104 -368 -104q-84 0 -155 17.5t-129 54.5t-98.5 91.5t-62.5 131.5t-22 172z" />
<glyph unicode="&#x428;" horiz-adv-x="2242" d="M167 0v1391h305v-1115h495v1115h307v-1115h496v1115h306v-1391h-1909z" />
<glyph unicode="&#x429;" horiz-adv-x="2288" d="M167 0v1391h305v-1115h495v1115h307v-1115h496v1115h306v-1115h165l-40 -566h-254v290h-1780z" />
<glyph unicode="&#x42a;" horiz-adv-x="1568" d="M59 1115v276h638v-473h296q239 0 374 -122.5t135 -328.5q0 -143 -64 -248t-183.5 -162t-280.5 -57h-583v1115h-332zM697 276h272q229 0 229 194q0 90 -58.5 138t-172.5 48h-270v-380z" />
<glyph unicode="&#x42b;" horiz-adv-x="1905" d="M167 0v1391h305v-473h297q239 0 373.5 -122.5t134.5 -328.5q0 -215 -142 -341t-386 -126h-582zM472 276h273q229 0 229 194q0 90 -58.5 138t-172.5 48h-271v-380zM1433 0v1391h305v-1391h-305z" />
<glyph unicode="&#x42c;" horiz-adv-x="1344" d="M167 0v1391h305v-473h297q239 0 373.5 -122.5t134.5 -328.5q0 -215 -142 -341t-386 -126h-582zM472 276h273q229 0 229 194q0 90 -58.5 138t-172.5 48h-271v-380z" />
<glyph unicode="&#x42d;" horiz-adv-x="1455" d="M57 210l189 205q92 -83 179.5 -124t202.5 -41q147 0 253.5 90.5t141.5 233.5h-570v254h568q-37 138 -144 225.5t-249 87.5q-197 0 -364 -148l-169 211q51 47 102 82.5t115.5 66t143.5 46t170 15.5q156 0 292.5 -56.5t230.5 -153.5t148 -229t54 -280q0 -149 -54.5 -282 t-148.5 -229t-227 -152t-284 -56q-195 0 -332 57.5t-248 176.5z" />
<glyph unicode="&#x42e;" horiz-adv-x="2115" d="M167 0v1391h305v-555h193q22 123 80.5 229.5t144 183.5t201 121t244.5 44q146 0 272.5 -55.5t214.5 -152t138.5 -229t50.5 -282.5q0 -118 -32 -227.5t-92.5 -198.5t-143 -155t-188.5 -102t-224 -36q-131 0 -246.5 44t-201 122.5t-143 186t-77.5 234.5h-191v-563h-305z M971 695q0 -122 45.5 -222.5t129 -159.5t189.5 -59q79 0 146.5 34t114 93t73 140t26.5 174q0 122 -46 222t-129.5 158.5t-188.5 58.5t-187.5 -57.5t-127.5 -157t-45 -224.5z" />
<glyph unicode="&#x42f;" horiz-adv-x="1435" d="M66 0l339 497q-90 34 -155.5 90.5t-103.5 145t-38 199.5q0 216 139 337.5t384 121.5h637v-1391h-307v445h-240l-298 -445h-357zM417 912q0 -90 62 -143.5t173 -53.5h309v400h-303q-76 0 -129.5 -22.5t-82.5 -68.5t-29 -112z" />
<glyph unicode="&#x430;" horiz-adv-x="1175" d="M72 309q0 114 55 191.5t150 113.5t224 36q133 0 259 -44v18q0 94 -57.5 144.5t-169.5 50.5q-81 0 -147.5 -14.5t-146.5 -44.5l-76 231q97 43 192 64.5t221 21.5q241 0 360 -120q115 -114 115 -339v-618h-292v115q-122 -134 -322 -134q-102 0 -183.5 36.5t-131.5 112.5 t-50 179zM364 318q0 -40 21 -69.5t58 -44.5t86 -15q105 0 170 52t65 134v54q-84 40 -192 40q-98 0 -153 -39t-55 -112z" />
<glyph unicode="&#x431;" horiz-adv-x="1298" d="M106 612q0 76 3.5 138t15 134t31 128t53.5 113t80 98.5t112.5 73.5t150.5 47l570 106l48 -238l-584 -116q-243 -49 -258 -250q16 29 47.5 58t78 57.5t115.5 46t146 17.5q100 0 192.5 -39t161 -106.5t109.5 -163t41 -202.5q0 -87 -26.5 -168.5t-76.5 -148t-118 -116.5 t-154.5 -77.5t-181.5 -27.5q-180 0 -304.5 73.5t-188 216t-63.5 346.5zM405 510q0 -114 74.5 -193.5t185.5 -79.5q115 0 186 78t71 195q0 116 -75 197.5t-185 81.5q-114 0 -185.5 -80t-71.5 -199z" />
<glyph unicode="&#x432;" horiz-adv-x="1191" d="M135 0v1065h584q80 0 146 -18.5t112.5 -52.5t72 -84t25.5 -112q0 -167 -169 -240q102 -32 155.5 -96t53.5 -172q0 -135 -106.5 -212.5t-291.5 -77.5h-582zM433 237h238q68 0 103 28.5t35 77.5q0 46 -36 75t-110 29h-230v-210zM433 637h213q62 0 94.5 30t32.5 78 q0 42 -30.5 69.5t-92.5 27.5h-217v-205z" />
<glyph unicode="&#x433;" horiz-adv-x="940" d="M135 0v1065h777v-259h-475v-806h-302z" />
<glyph unicode="&#x434;" horiz-adv-x="1280" d="M17 -250v508h116q61 131 82.5 309t21.5 407v91h870v-807h144l-36 -508h-254v250h-667l-21 -250h-256zM441 258h363v548h-283v-23q-2 -162 -18.5 -290t-61.5 -235z" />
<glyph unicode="&#x435;" horiz-adv-x="1217" d="M83 531q0 112 39.5 214t108 176.5t167.5 118.5t212 44q104 0 190.5 -31t146 -85t101 -128t61 -158t19.5 -176q0 -23 -4 -79h-741q22 -102 90.5 -155.5t170.5 -53.5q75 0 135 25.5t123 84.5l173 -153q-160 -199 -436 -199q-159 0 -285.5 69t-198.5 196t-72 290zM379 616 h455q-13 103 -72 164.5t-152 61.5q-92 0 -152 -60.5t-79 -165.5z" />
<glyph unicode="&#x436;" horiz-adv-x="1769" d="M0 0l404 624l-392 441h348l373 -453v453h304v-453l373 453h351l-392 -441l401 -624h-335l-271 425l-127 -149v-276h-304v276l-127 149l-268 -425h-338z" />
<glyph unicode="&#x437;" horiz-adv-x="1038" d="M36 146l139 192q66 -58 150 -90t170 -32q67 0 112 33.5t45 80t-47 78t-131 31.5h-125v189h123q70 0 112 31.5t42 77.5q0 42 -39.5 71.5t-99.5 29.5q-171 0 -288 -110l-129 184q84 77 199.5 122t249.5 45q85 0 160 -22t129 -60t84.5 -92t30.5 -114q0 -168 -163 -241 q190 -67 190 -248q0 -140 -121 -233t-308 -93q-294 0 -485 170z" />
<glyph unicode="&#x438;" horiz-adv-x="1261" d="M135 0v1065h292v-622l415 622h284v-1065h-292v620l-415 -620h-284z" />
<glyph unicode="&#x439;" horiz-adv-x="1261" d="M135 0v1065h292v-622l415 622h284v-1065h-292v620l-415 -620h-284zM306 1468l177 32q43 -133 156 -133q115 0 157 133l178 -32q-11 -72 -39 -128.5t-70.5 -94.5t-100 -58.5t-125.5 -20.5q-137 0 -224.5 79t-108.5 223z" />
<glyph unicode="&#x43a;" horiz-adv-x="1213" d="M135 0v1065h302v-437l382 437h347l-391 -437l440 -628h-357l-284 405l-137 -149v-256h-302z" />
<glyph unicode="&#x43b;" horiz-adv-x="1253" d="M6 6l20 244q35 -6 63 -6q27 0 45.5 6t38.5 25t32.5 54.5t24 95.5t18 147.5t10.5 209.5t4 283h856v-1065h-301v806h-271q0 -132 -5.5 -237.5t-17.5 -187.5t-29 -143.5t-42 -105t-53.5 -71.5t-67 -44t-79 -22.5t-93.5 -6.5q-31 0 -77.5 5.5t-75.5 12.5z" />
<glyph unicode="&#x43c;" horiz-adv-x="1461" d="M135 0v1065h306l288 -447l292 447h306v-1065h-306v639l-295 -436l-293 430v-633h-298z" />
<glyph unicode="&#x43d;" horiz-adv-x="1245" d="M135 0v1065h302v-409h372v409h302v-1065h-302v407h-372v-407h-302z" />
<glyph unicode="&#x43e;" horiz-adv-x="1318" d="M83 531q0 113 44.5 215t120.5 176.5t184 118t230 43.5q121 0 228 -43t182.5 -117t119.5 -176.5t44 -216.5t-44 -216t-120.5 -176.5t-184 -118.5t-229.5 -44q-82 0 -157.5 19.5t-138.5 55t-115 86.5t-88 112t-56 133t-20 149zM381 531q0 -79 35 -146t99.5 -107.5 t146.5 -40.5q125 0 200.5 84.5t75.5 209.5q0 78 -34.5 145t-99.5 107.5t-146 40.5q-126 0 -201.5 -84.5t-75.5 -208.5z" />
<glyph unicode="&#x43f;" horiz-adv-x="1236" d="M135 0v1065h968v-1065h-303v806h-363v-806h-302z" />
<glyph unicode="&#x440;" horiz-adv-x="1340" d="M135 -318v1383h302v-153q129 172 332 172q63 0 122.5 -16t113.5 -47t99.5 -79t78.5 -108t51.5 -138t18.5 -165q0 -104 -26 -193.5t-71.5 -154.5t-107 -111t-132.5 -68.5t-147 -22.5q-111 0 -190.5 42.5t-141.5 115.5v-457h-302zM433 531q0 -130 75 -212t184 -82 q108 0 184 82t76 215q0 65 -21 120.5t-56.5 93.5t-83 59t-99.5 21q-109 0 -184 -82.5t-75 -214.5z" />
<glyph unicode="&#x441;" horiz-adv-x="1133" d="M83 531q0 112 42 214t115 176.5t178 118.5t224 44q142 0 242.5 -47.5t180.5 -138.5l-177 -179q-58 53 -112.5 79t-136.5 26q-112 0 -185 -85.5t-73 -207.5q0 -126 75 -210t196 -84q71 0 127.5 28t116.5 84l177 -178q-42 -46 -83 -79t-93 -60.5t-117 -41.5t-143 -14 t-151.5 19.5t-134 55.5t-111 87t-85 112t-53.5 133t-19 148z" />
<glyph unicode="&#x442;" horiz-adv-x="997" d="M30 806v259h937v-259h-315v-806h-307v806h-315z" />
<glyph unicode="&#x443;" horiz-adv-x="1191" d="M40 1065h320l242 -725l232 725h314l-409 -1091q-62 -164 -139 -231t-211 -67q-142 0 -268 74l101 218q69 -42 129 -42q39 0 63 15.5t43 54.5z" />
<glyph unicode="&#x444;" horiz-adv-x="1793" d="M87 531q0 101 21 188t59 152.5t91.5 111.5t120 70t142.5 24q67 0 128.5 -29.5t95.5 -69.5v413h304v-413q34 40 95.5 69.5t129.5 29.5q95 0 174.5 -37.5t136.5 -106.5t89 -172.5t32 -229.5q0 -128 -31.5 -231t-89 -171.5t-136.5 -105.5t-173 -37q-69 0 -132 25t-95 61 v-390h-304v390q-33 -36 -95 -61t-131 -25q-95 0 -174 37t-136.5 105.5t-89.5 171.5t-32 231zM389 531q0 -91 25.5 -156t76.5 -100.5t125 -35.5q38 0 67.5 11.5t61.5 35.5v487q-34 26 -63 38.5t-66 12.5q-72 0 -124 -37t-77.5 -102.5t-25.5 -153.5zM1049 286 q32 -24 61.5 -35.5t67.5 -11.5q110 0 168.5 77t58.5 215q0 134 -59.5 213.5t-167.5 79.5q-37 0 -66 -12.5t-63 -38.5v-487z" />
<glyph unicode="&#x445;" horiz-adv-x="1160" d="M46 0l373 540l-360 525h324l199 -310l201 310h316l-360 -519l376 -546h-324l-215 332l-214 -332h-316z" />
<glyph unicode="&#x446;" horiz-adv-x="1276" d="M135 0v1065h302v-807h363v807h303v-807h144l-35 -508h-255v250h-822z" />
<glyph unicode="&#x447;" horiz-adv-x="1203" d="M106 646v419h305v-334q0 -85 37 -130t110 -45q103 0 206 52v457h305v-1065h-305v372q-143 -70 -287 -70q-80 0 -147.5 22.5t-117.5 65.5t-78 108.5t-28 147.5z" />
<glyph unicode="&#x448;" horiz-adv-x="1854" d="M135 0v1065h302v-807h340v807h302v-807h337v807h305v-1065h-1586z" />
<glyph unicode="&#x449;" horiz-adv-x="1894" d="M135 0v1065h302v-807h340v807h302v-807h337v807h305v-807h144l-36 -508h-254v250h-1440z" />
<glyph unicode="&#x44a;" horiz-adv-x="1289" d="M30 811v254h578v-352h218q94 0 171 -21.5t134 -64t88.5 -110.5t31.5 -155q0 -169 -108.5 -265.5t-300.5 -96.5h-536v811h-276zM608 239h190q74 0 112 32.5t38 94.5q0 56 -39 87.5t-113 31.5h-188v-246z" />
<glyph unicode="&#x44b;" horiz-adv-x="1658" d="M135 0v1065h302v-352h219q41 0 79 -4t73.5 -12.5t67 -21.5t59 -30t50 -38.5t40.5 -47.5t30.5 -56.5t19 -66t6.5 -74.5q0 -169 -109 -265.5t-301 -96.5h-536zM437 239h191q49 0 82.5 14.5t50 43t16.5 69.5q0 56 -39 87.5t-112 31.5h-189v-246zM1222 0v1065h302v-1065h-302 z" />
<glyph unicode="&#x44c;" horiz-adv-x="1118" d="M135 0v1065h302v-352h219q41 0 79 -4t73.5 -12.5t67 -21.5t59 -30t50 -38.5t40.5 -47.5t30.5 -56.5t19 -66t6.5 -74.5q0 -169 -109 -265.5t-301 -96.5h-536zM437 239h191q49 0 82.5 14.5t50 43t16.5 69.5q0 56 -39 87.5t-112 31.5h-189v-246z" />
<glyph unicode="&#x44d;" horiz-adv-x="1141" d="M61 171l172 172q60 -57 121 -85.5t137 -28.5q97 0 166.5 55t97.5 147h-372v202h370q-18 59 -53.5 103.5t-86.5 70t-111 25.5q-81 0 -142 -24.5t-116 -76.5l-157 185q46 46 101 81.5t138 61t175 25.5q119 0 224 -44t177.5 -118.5t114.5 -176.5t42 -214q0 -114 -42 -216.5 t-115 -177t-176.5 -118t-221.5 -43.5q-149 0 -253.5 50.5t-189.5 144.5z" />
<glyph unicode="&#x44e;" horiz-adv-x="1725" d="M135 0v1065h302v-409h145q15 73 47.5 138t80.5 118t108.5 91.5t134.5 59.5t156 21q117 0 217.5 -43t169.5 -117.5t108 -176t39 -216.5q0 -114 -39 -216t-108.5 -177t-171 -118.5t-219.5 -43.5q-136 0 -247 55.5t-181.5 153t-94.5 222.5h-145v-407h-302zM868 531 q0 -60 16 -112.5t45.5 -93.5t75.5 -64.5t104 -23.5q59 0 105 23t74 63.5t42 93t14 114.5q0 80 -26.5 145.5t-81.5 106.5t-131 41q-79 0 -133.5 -40.5t-79 -105t-24.5 -147.5z" />
<glyph unicode="&#x44f;" horiz-adv-x="1213" d="M40 0l272 391q-105 40 -164 119.5t-59 198.5q0 163 113.5 259.5t318.5 96.5h558v-1065h-302v341h-163l-225 -341h-349zM396 694q0 -64 46.5 -98.5t129.5 -34.5h205v267h-207q-82 0 -128 -34.5t-46 -99.5z" />
<glyph unicode="&#x451;" horiz-adv-x="1217" d="M83 531q0 112 39.5 214t108 176.5t167.5 118.5t212 44q104 0 190.5 -31t146 -85t101 -128t61 -158t19.5 -176q0 -23 -4 -79h-741q22 -102 90.5 -155.5t170.5 -53.5q75 0 135 25.5t123 84.5l173 -153q-160 -199 -436 -199q-159 0 -285.5 69t-198.5 196t-72 290zM250 1182 v268h290v-268h-290zM379 616h455q-13 103 -72 164.5t-152 61.5q-92 0 -152 -60.5t-79 -165.5zM675 1182v268h290v-268h-290z" />
<glyph unicode="&#x452;" horiz-adv-x="1236" d="M4 1094v212h131v144h302v-144h310v-212h-310v-260q30 38 58 65.5t66 53t85.5 39t102.5 13.5q113 0 195 -47.5t124.5 -136.5t42.5 -211v-227q0 -185 -105 -292t-275 -107q-45 0 -83.5 5t-57.5 10.5t-42 13.5t-29 9l49 230q14 -4 44 -4q90 0 143.5 59.5t53.5 164.5v42 q0 106 -48 161.5t-135 55.5q-58 0 -100 -24t-65.5 -73.5t-23.5 -119.5v-514h-302v1094h-131z" />
<glyph unicode="&#x453;" horiz-adv-x="940" d="M135 0v1065h777v-259h-475v-806h-302zM328 1182l224 352l261 -114l-255 -238h-230z" />
<glyph unicode="&#x454;" horiz-adv-x="1141" d="M83 531q0 112 42 214t115 176.5t178 118.5t224 44q133 0 236 -47.5t176 -120.5l-156 -185q-54 51 -115.5 76t-143.5 25q-89 0 -155.5 -55t-94.5 -144h370v-202h-372q28 -92 97.5 -147t167.5 -55q76 0 137 28.5t121 85.5l171 -172q-85 -94 -189.5 -144.5t-254.5 -50.5 q-78 0 -151.5 19.5t-134 55.5t-111 87t-85 112t-53.5 133t-19 148z" />
<glyph unicode="&#x455;" horiz-adv-x="997" d="M51 141l129 199q86 -62 173.5 -95t162.5 -33q64 0 96 22t32 62q0 11 -3.5 20.5t-11.5 17.5t-16 15t-23 14t-26.5 11.5t-31.5 11t-33.5 11t-37.5 11.5t-38 11q-52 15 -91 30t-84.5 42t-74 59.5t-48 82t-19.5 110.5q0 105 53 183t140 116.5t196 38.5q67 0 137 -15 t136.5 -42.5t123.5 -66.5l-115 -208q-171 99 -288 99q-54 0 -83 -21t-29 -56q0 -13 6 -24.5t20.5 -22t27.5 -18.5t39 -18t42 -16t50 -17q21 -7 32 -11q37 -12 65 -22.5t63.5 -27.5t61 -34t52 -42t43 -52.5t27 -64t10.5 -77.5q0 -87 -31 -153.5t-86.5 -107.5t-129 -61.5 t-161.5 -20.5q-117 0 -236 39.5t-221 120.5z" />
<glyph unicode="&#x456;" horiz-adv-x="599" d="M141 1182v268h318v-268h-318zM149 0v1065h302v-1065h-302z" />
<glyph unicode="&#x457;" horiz-adv-x="599" d="M-57 1182v268h290v-268h-290zM149 0v1065h302v-1065h-302zM368 1182v268h290v-268h-290z" />
<glyph unicode="&#x458;" horiz-adv-x="599" d="M-22 -76q36 -5 64 -5q107 0 107 123v1023h302v-1048q0 -341 -341 -341q-70 0 -132 12v236zM141 1182v268h318v-268h-318z" />
<glyph unicode="&#x459;" horiz-adv-x="1799" d="M6 6l20 244q35 -6 63 -6q27 0 45.5 6t38.5 25t32.5 54.5t24 95.5t18 147.5t10.5 209.5t4 283h856v-352h219q93 0 170 -21.5t134.5 -64t89 -110.5t31.5 -155q0 -84 -28 -151.5t-80 -114t-129 -71.5t-172 -25h-536v806h-271q0 -132 -5.5 -237.5t-17.5 -187.5t-29 -143.5 t-42 -105t-53.5 -71.5t-67 -44t-79 -22.5t-93.5 -6.5q-32 0 -80.5 5.5t-72.5 12.5zM1118 239h192q49 0 82 14.5t49.5 43t16.5 69.5q0 56 -38.5 87.5t-111.5 31.5h-190v-246z" />
<glyph unicode="&#x45a;" horiz-adv-x="1791" d="M135 0v1065h302v-368h372v368h302v-368h218q94 0 170.5 -20.5t134 -62t89 -108.5t31.5 -155q0 -167 -108.5 -259t-301.5 -92h-535v469h-372v-469h-302zM1111 239h190q75 0 112 28.5t37 88.5q0 55 -38.5 84t-112.5 29h-188v-230z" />
<glyph unicode="&#x45b;" horiz-adv-x="1236" d="M4 1094v212h131v144h302v-144h310v-212h-310v-260q30 38 58 65.5t66 53t85.5 39t102.5 13.5q113 0 195 -47.5t124.5 -136.5t42.5 -211v-610h-302v514q0 106 -48 161.5t-135 55.5q-58 0 -100 -24t-65.5 -73.5t-23.5 -119.5v-514h-302v1094h-131z" />
<glyph unicode="&#x45c;" horiz-adv-x="1213" d="M135 0v1065h302v-437l382 437h347l-391 -437l440 -628h-357l-284 405l-137 -149v-256h-302zM463 1182l225 352l260 -114l-254 -238h-231z" />
<glyph unicode="&#x45e;" horiz-adv-x="1191" d="M40 1065h320l242 -725l232 725h314l-409 -1091q-62 -164 -139 -231t-211 -67q-142 0 -268 74l101 218q69 -42 129 -42q39 0 63 15.5t43 54.5zM266 1468l177 32q43 -133 156 -133q115 0 158 133l177 -32q-21 -143 -109 -222.5t-225 -79.5t-225 79t-109 223z" />
<glyph unicode="&#x45f;" horiz-adv-x="1236" d="M135 0v1065h302v-807h363v807h303v-1065h-339v-250h-283v250h-346z" />
<glyph unicode="&#x490;" horiz-adv-x="1187" d="M167 0v1391h677v290h255l40 -566h-667v-1115h-305z" />
<glyph unicode="&#x491;" horiz-adv-x="940" d="M135 0v1065h487v250h254l36 -509h-475v-806h-302z" />
<glyph unicode="&#x2000;" horiz-adv-x="926" />
<glyph unicode="&#x2001;" horiz-adv-x="1852" />
<glyph unicode="&#x2002;" horiz-adv-x="926" />
<glyph unicode="&#x2003;" horiz-adv-x="1852" />
<glyph unicode="&#x2004;" horiz-adv-x="617" />
<glyph unicode="&#x2005;" horiz-adv-x="463" />
<glyph unicode="&#x2006;" horiz-adv-x="308" />
<glyph unicode="&#x2007;" horiz-adv-x="308" />
<glyph unicode="&#x2008;" horiz-adv-x="231" />
<glyph unicode="&#x2009;" horiz-adv-x="370" />
<glyph unicode="&#x200a;" horiz-adv-x="102" />
<glyph unicode="&#x2010;" horiz-adv-x="809" d="M99 470v290h612v-290h-612z" />
<glyph unicode="&#x2011;" horiz-adv-x="809" d="M99 470v290h612v-290h-612z" />
<glyph unicode="&#x2012;" horiz-adv-x="809" d="M99 470v290h612v-290h-612z" />
<glyph unicode="&#x2013;" horiz-adv-x="1048" d="M99 474v283h851v-283h-851z" />
<glyph unicode="&#x2014;" horiz-adv-x="1783" d="M99 474v283h1586v-283h-1586z" />
<glyph unicode="&#x2018;" horiz-adv-x="567" d="M113 760v269q0 192 92.5 280.5t275.5 91.5l25 -125q-102 -11 -151.5 -61.5t-42.5 -135.5h124v-319h-323z" />
<glyph unicode="&#x2019;" horiz-adv-x="567" d="M61 876q102 10 152 60.5t43 136.5h-123v318h322v-269q0 -97 -24 -167.5t-71.5 -115t-114.5 -66t-158 -22.5z" />
<glyph unicode="&#x201a;" horiz-adv-x="567" d="M51 -197q103 10 153 61t42 136h-123v318h322v-269q0 -97 -24 -167.5t-71.5 -114.5t-114.5 -66t-157 -23z" />
<glyph unicode="&#x201c;" horiz-adv-x="1071" d="M113 760v269q0 192 92.5 280.5t275.5 91.5l25 -125q-102 -11 -151.5 -61.5t-42.5 -135.5h124v-319h-323zM618 760v269q0 192 92.5 280.5t275.5 91.5l25 -125q-102 -11 -152 -61.5t-42 -135.5h123v-319h-322z" />
<glyph unicode="&#x201d;" horiz-adv-x="1071" d="M61 876q102 10 152 60.5t43 136.5h-123v318h322v-269q0 -97 -24 -167.5t-71.5 -115t-114.5 -66t-158 -22.5zM566 876q103 10 152.5 60.5t41.5 136.5h-123v318h322v-269q0 -191 -92.5 -279.5t-274.5 -91.5z" />
<glyph unicode="&#x201e;" horiz-adv-x="1071" d="M51 -197q103 10 153 61t42 136h-123v318h322v-269q0 -97 -24 -167.5t-71.5 -114.5t-114.5 -66t-157 -23zM556 -197q102 10 152 61t43 136h-123v318h322v-269q0 -191 -92.5 -279.5t-275.5 -91.5z" />
<glyph unicode="&#x2026;" horiz-adv-x="1668" d="M123 0v309h314v-309h-314zM677 0v309h314v-309h-314zM1232 0v309h313v-309h-313z" />
<glyph unicode="&#x202f;" horiz-adv-x="370" />
<glyph unicode="&#x2039;" horiz-adv-x="740" d="M81 525v15l334 446l231 -112l-259 -340l259 -339l-231 -115z" />
<glyph unicode="&#x203a;" horiz-adv-x="740" d="M95 191l259 340l-259 339l231 116l334 -446v-15l-334 -445z" />
<glyph unicode="&#x205f;" horiz-adv-x="463" />
<glyph unicode="&#x20ac;" horiz-adv-x="1429" d="M97 431v200h149q-2 20 -2 64q0 48 2 72h-149v200h187q31 99 84.5 180.5t125.5 141t166.5 92.5t201.5 33q90 0 165 -18t133.5 -54t103.5 -79.5t87 -102.5l-231 -174q-60 80 -120.5 118.5t-142.5 38.5q-174 0 -255 -176h367v-200h-413q-2 -22 -2 -72q0 -44 2 -64h413v-200 h-370q80 -183 269 -183q34 0 64 7t55 19.5t50.5 33.5t48 45t50.5 58l219 -161q-46 -65 -94 -113t-107 -85.5t-130.5 -56.5t-155.5 -19q-222 0 -375 122.5t-213 332.5h-183z" />
<glyph unicode="&#x2122;" horiz-adv-x="1370" d="M51 1268v123h505v-123h-183v-489h-138v489h-184zM686 779v612h146l161 -259l161 259h143v-612h-131v413l-169 -269h-11l-169 269v-413h-131z" />
<glyph unicode="&#xe000;" horiz-adv-x="1062" d="M0 0v1063h1063v-1063h-1063z" />
</font>
</defs>
</svg>
