<?xml version="1.0" standalone="no"?>
<!DOCTYPE svg PUBLIC "-//W3C//DTD SVG 1.1//EN" "http://www.w3.org/Graphics/SVG/1.1/DTD/svg11.dtd" >
<svg xmlns="http://www.w3.org/2000/svg">
<metadata></metadata>
<defs>
<font id="a_futuricabsbold" horiz-adv-x="1346" >
<font-face units-per-em="2048" ascent="1638" descent="-410" />
<missing-glyph horiz-adv-x="672" />
<glyph horiz-adv-x="0" />
<glyph unicode="&#xd;" horiz-adv-x="672" />
<glyph unicode=" "  horiz-adv-x="672" />
<glyph unicode="&#x09;" horiz-adv-x="672" />
<glyph unicode="&#xa0;" horiz-adv-x="672" />
<glyph unicode="!" horiz-adv-x="754" d="M170 168q0 86 61 146.5t146 60.5t146 -60.5t61 -146.5q0 -84 -61.5 -145.5t-145.5 -61.5t-145.5 61.5t-61.5 145.5zM211 477v1067h332v-1067h-332z" />
<glyph unicode="&#x22;" horiz-adv-x="991" d="M119 1544h309l-51 -629h-207zM559 1544h311l-53 -629h-203z" />
<glyph unicode="#" d="M115 377v215h229l51 266h-196v215h237l76 410h201l-78 -410h227l78 410h201l-78 -410h174v-215h-215l-49 -266h180v-215h-221l-74 -377h-199l72 377h-227l-74 -377h-199l72 377h-188zM545 592h225l51 266h-227z" />
<glyph unicode="$" d="M125 233l176 238q51 -78 146 -137q107 -66 208 -66q94 0 156.5 43.5t62.5 118.5q0 86 -56 135t-226 109q-201 71 -290 171.5t-89 260.5q0 183 112 302q110 116 300 144v230h166v-228q231 -25 368 -151l-151 -244q-98 115 -269 115q-77 0 -131.5 -42t-54.5 -102 q0 -68 59 -108.5t238 -97.5q192 -62 275 -163q87 -108 87 -300q0 -387 -421 -465v-242h-166v232q-138 0 -277.5 69t-222.5 178z" />
<glyph unicode="%" horiz-adv-x="1827" d="M68 1219q0 159 109.5 265.5t273.5 106.5q158 0 267 -106t109 -258q0 -160 -106 -266.5t-268 -106.5q-163 0 -274 105.5t-111 259.5zM297 1221q0 -79 44.5 -132t109.5 -53q62 0 105.5 52t43.5 129q0 81 -42.5 136.5t-104.5 55.5q-68 0 -112 -53.5t-44 -134.5zM356 -37 l908 1628h200l-897 -1628h-211zM999 330q0 160 109.5 268.5t273.5 108.5q158 0 267.5 -107.5t109.5 -261.5q0 -160 -106.5 -267.5t-268.5 -107.5t-273.5 106.5t-111.5 260.5zM1229 328q0 -80 44 -131.5t109 -51.5q62 0 106 53.5t44 129.5q0 84 -43 139t-105 55 q-66 0 -110.5 -56t-44.5 -138z" />
<glyph unicode="&#x26;" horiz-adv-x="1655" d="M86 408q0 168 110 283q81 84 261 171q-154 173 -154 316q0 182 126 295q123 110 316 110q196 0 324 -105q131 -109 131 -284q0 -136 -106 -244q-71 -72 -179 -133q105 -140 228 -258q91 79 196 217l201 -192q-113 -139 -207 -226q123 -135 330 -358h-432q-14 12 -139 154 q-240 -193 -498 -193q-240 0 -379 134q-129 124 -129 313zM438 444q0 -74 63 -125t146 -51q98 0 211 76q25 17 37 29q-86 81 -270 303q-93 -56 -132 -98q-55 -59 -55 -134zM631 1206q0 -77 123 -215q168 97 168 205q0 65 -45.5 106t-110.5 41q-55 0 -95 -38t-40 -99z" />
<glyph unicode="'" horiz-adv-x="512" d="M100 1544h312l-54 -629h-204z" />
<glyph unicode="(" horiz-adv-x="692" d="M109 571q0 331 88 633q76 258 188 414l203 -115q-90 -137 -150 -373q-69 -268 -69 -559q0 -289 69 -558q60 -236 150 -373l-203 -115q-112 156 -188 414q-88 301 -88 632z" />
<glyph unicode=")" horiz-adv-x="692" d="M102 -360q91 136 152 373q70 268 70 558q0 291 -70 559q-61 236 -152 373l201 115q116 -154 194 -414q89 -301 89 -633t-89 -632q-78 -260 -194 -414z" />
<glyph unicode="*" horiz-adv-x="1024" d="M170 1100l190 98l-190 98l84 150l182 -115l-8 213h170l-10 -213l184 115l84 -150l-190 -98l190 -98l-84 -150l-184 115l10 -213h-170l8 213l-182 -115z" />
<glyph unicode="+" d="M162 395v273h375v368h272v-368h375v-273h-375v-372h-272v372h-375z" />
<glyph unicode="," horiz-adv-x="674" d="M0 -297l186 647l369 -16l-348 -643z" />
<glyph unicode="-" horiz-adv-x="786" d="M119 524v264h549v-264h-549z" />
<glyph unicode="." horiz-adv-x="674" d="M129 168q0 85 62 146t147 61t146 -60.5t61 -146.5q0 -84 -61.5 -145.5t-145.5 -61.5q-85 0 -147 61.5t-62 145.5z" />
<glyph unicode="/" horiz-adv-x="1055" d="M0 -190l803 1912l252 -18l-801 -1913z" />
<glyph unicode="0" d="M47 772q0 364 174 594.5t453 230.5q278 0 450 -230.5t172 -594.5q0 -365 -172.5 -595t-451.5 -230t-452 230t-173 595zM389 772q0 -230 78.5 -375t206.5 -145q126 0 203 146q75 143 75 374q0 230 -75 374q-78 146 -205 146t-205 -145.5t-78 -374.5z" />
<glyph unicode="1" d="M276 0v293h265v956h-215l26 295h533v-1251h248v-293h-857z" />
<glyph unicode="2" d="M76 0l614 696q193 219 193 377q0 100 -54.5 165t-140.5 65q-93 0 -152 -56q-65 -60 -65 -166v-41h-373q0 238 162.5 397.5t409.5 159.5q245 0 405 -148.5t160 -377.5q0 -154 -88 -286q-91 -137 -432 -488h534v-297h-1173z" />
<glyph unicode="3" d="M82 469h346q3 -105 68.5 -165t175.5 -60q98 0 164.5 65.5t66.5 161.5q0 238 -233 238h-72v229h47q205 0 205 184q0 88 -50.5 140.5t-137.5 52.5q-80 0 -133 -52.5t-56 -138.5h-321q22 222 160 346q142 127 376 127q217 0 350 -120.5t133 -317.5q0 -224 -167 -325 q243 -77 243 -396q0 -207 -164.5 -349t-402.5 -142q-289 0 -447 153q-144 139 -151 369z" />
<glyph unicode="4" d="M31 295v227l684 1041h389v-998h182v-270h-182v-295h-326v295h-747zM395 565h383v613z" />
<glyph unicode="5" d="M119 86l55 328q58 -64 166 -114q121 -56 235 -56q124 0 207.5 77t83.5 193q0 125 -98 207t-246 82q-178 0 -301 -84l-6 10l123 815h778v-297h-530l-33 -219q77 16 164 16q214 0 359 -157t145 -389q0 -244 -172 -397.5t-441 -153.5q-155 0 -294 42q-129 39 -195 97z" />
<glyph unicode="6" d="M57 494q0 153 77 316q74 159 247 380l285 364l370 -26l-334 -398q-40 -48 -104 -139q90 45 211 45q205 0 343 -148t138 -378q0 -247 -173.5 -405t-444.5 -158q-267 0 -438 146q-177 151 -177 401zM399 496q0 -118 83 -197q79 -76 186 -76q116 0 195 77.5t79 188.5 q0 123 -76 201t-194 78q-105 0 -186 -72q-87 -79 -87 -200z" />
<glyph unicode="7" d="M125 1247v297h1225l-820 -1583l-366 64l651 1222h-690z" />
<glyph unicode="8" d="M113 412q0 142 79 249q76 103 209 150q-116 50 -178 157q-53 93 -53 199q0 190 141 310t363 120q216 0 360 -122t144 -308q0 -116 -60 -209q-63 -97 -176 -147q133 -47 213 -157.5t80 -241.5q0 -205 -159.5 -335t-401.5 -130q-238 0 -399.5 132t-161.5 333zM459 444 q0 -90 62 -150.5t155 -60.5q90 0 151.5 62t61.5 154q0 91 -62.5 156t-150.5 65q-94 0 -155.5 -64.5t-61.5 -161.5zM477 1155q0 -87 56.5 -144t138.5 -57q83 0 138.5 57.5t55.5 143.5q0 83 -55.5 139t-138.5 56q-79 0 -137 -57.5t-58 -137.5z" />
<glyph unicode="9" d="M63 1034q0 247 174.5 405t444.5 158q268 0 439 -145q177 -150 177 -399q0 -155 -77 -319q-75 -160 -248 -380l-293 -372l-371 24l359 432q49 59 84 115q-93 -45 -207 -45q-205 0 -342 147q-140 150 -140 379zM412 1055q0 -121 76.5 -201t193.5 -80q105 0 184 74 q86 80 86 201q0 119 -82 197q-77 75 -184 75q-115 0 -194.5 -77t-79.5 -189z" />
<glyph unicode=":" horiz-adv-x="674" d="M129 168q0 86 61 146.5t146 60.5t146 -60.5t61 -146.5q0 -84 -61.5 -145.5t-145.5 -61.5t-145.5 61.5t-61.5 145.5zM129 885q0 84 61.5 145.5t145.5 61.5t145.5 -61.5t61.5 -145.5q0 -86 -61 -146.5t-146 -60.5t-146 60.5t-61 146.5z" />
<glyph unicode=";" horiz-adv-x="674" d="M0 -297l186 647l369 -16l-348 -643zM147 885q0 85 60.5 146t144.5 61q86 0 146.5 -61t60.5 -146q0 -86 -60.5 -146.5t-146.5 -60.5q-85 0 -145 60.5t-60 146.5z" />
<glyph unicode="&#x3c;" d="M166 420v215l1014 387v-277l-625 -219l625 -217v-274z" />
<glyph unicode="=" d="M158 164v270h1030v-270h-1030zM158 621v272h1030v-272h-1030z" />
<glyph unicode="&#x3e;" d="M166 35v274l625 217l-625 219v277l1014 -387v-215z" />
<glyph unicode="?" horiz-adv-x="1122" d="M39 1124v17q0 191 127 312q139 132 385 132q229 0 368 -133q132 -126 132 -317q0 -177 -99 -295q-94 -111 -252 -148v-194h-331v422h88q116 0 183 55t67 153q0 78 -49 126q-46 44 -115 44q-66 0 -108 -43t-42 -118v-13h-354zM330 170q0 88 61.5 150.5t147.5 62.5 q90 0 151.5 -63t61.5 -150q0 -86 -61.5 -148.5t-147.5 -62.5q-90 0 -151.5 62t-61.5 149z" />
<glyph unicode="@" horiz-adv-x="1597" d="M33 780q0 322 234 561q238 244 569 244q314 0 525 -195q206 -189 206 -456q0 -239 -145 -426q-139 -180 -304 -180q-105 0 -137 121q-37 -46 -105 -79q-79 -40 -161 -40q-139 0 -236 103q-104 110 -104 290q0 187 117 329q126 152 317 152q73 0 140 -31q77 -36 104 -96 l22 88h189l-121 -565q-10 -30 -10 -57q19 -31 41 -31q72 0 140 128q72 136 72 304q0 189 -157 325q-160 140 -393 140q-256 0 -437 -184q-184 -187 -184 -455q0 -286 188 -464q175 -167 424 -167q135 0 258 29q113 27 162 65l166 -133q-57 -50 -211 -91q-169 -44 -350 -44 q-366 0 -595 234q-224 228 -224 581zM598 745q0 -96 52 -152q46 -50 112 -50q109 0 169 83q54 75 54 191q0 78 -47.5 130t-124.5 52q-88 0 -153 -82q-62 -78 -62 -172z" />
<glyph unicode="A" horiz-adv-x="1554" d="M-14 0l598 1544h387l600 -1544h-367l-119 322h-616l-117 -322h-366zM565 596h422l-209 578z" />
<glyph unicode="B" horiz-adv-x="1303" d="M131 0v1544h490q233 0 360 -105t127 -302q0 -100 -52 -182t-138 -126q149 -36 234 -146q81 -105 81 -243q0 -212 -147 -326t-416 -114h-539zM475 270h123q287 0 287 193q0 199 -269 199h-141v-392zM475 920h70q231 0 231 176q0 178 -237 178h-64v-354z" />
<glyph unicode="C" horiz-adv-x="1354" d="M55 772q0 343 243 578q240 233 585 233q194 0 362 -86v-412q-143 166 -366 166q-199 0 -332 -134.5t-133 -344.5q0 -216 133 -349q129 -130 332 -130q213 0 368 164v-414q-195 -82 -366 -82q-358 0 -592 230.5t-234 580.5z" />
<glyph unicode="D" horiz-adv-x="1495" d="M131 0v1544h494q365 0 591 -219q222 -216 222 -553q0 -343 -226 -556q-229 -216 -608 -216h-473zM475 297h84q247 0 383.5 123.5t136.5 351.5q0 226 -134.5 350.5t-375.5 124.5h-94v-950z" />
<glyph unicode="E" horiz-adv-x="1108" d="M131 0v1544h889v-297h-545v-305h500v-297h-500v-348h545v-297h-889z" />
<glyph unicode="F" horiz-adv-x="1053" d="M131 0v1544h850v-297h-506v-305h461v-297h-461v-645h-344z" />
<glyph unicode="G" horiz-adv-x="1700" d="M55 772q0 350 234 580.5t590 230.5q228 0 410 -103.5t274 -285.5l-316 -152q-131 248 -381 248q-190 0 -321 -150t-131 -368q0 -230 130 -379t324 -149q154 0 264.5 90.5t110.5 228.5h-350v275h749v-62q0 -387 -223 -607q-211 -208 -555 -208q-357 0 -583 225.5 t-226 585.5z" />
<glyph unicode="H" horiz-adv-x="1575" d="M131 0v1544h344v-602h625v602h344v-1544h-344v662h-625v-662h-344z" />
<glyph unicode="I" horiz-adv-x="612" d="M133 0v1544h346v-1544h-346z" />
<glyph unicode="J" horiz-adv-x="727" d="M-115 39l115 266q63 -47 123 -47q125 0 125 234v1052h344v-1081q0 -274 -100 -388t-330 -114q-177 0 -277 78z" />
<glyph unicode="K" horiz-adv-x="1462" d="M131 0v1544h344v-684l537 684h430l-627 -729l670 -815h-449l-561 745v-745h-344z" />
<glyph unicode="L" horiz-adv-x="977" d="M133 0v1544h344v-1247h477v-297h-821z" />
<glyph unicode="M" horiz-adv-x="1911" d="M20 0l254 1544h353l329 -995l338 995h357l239 -1544h-344l-133 965l-356 -965h-203l-352 965l-137 -965h-345z" />
<glyph unicode="N" horiz-adv-x="1675" d="M131 0v1546h369l721 -1036v1036h323v-1546h-368l-721 1036v-1036h-324z" />
<glyph unicode="O" horiz-adv-x="1794" d="M53 772q0 344 242.5 577.5t599.5 233.5q358 0 600 -233.5t242 -577.5t-242 -577.5t-600 -233.5q-357 0 -599.5 233.5t-242.5 577.5zM412 772q0 -201 140 -339t343 -138q206 0 345.5 138t139.5 339q0 202 -140 340.5t-345 138.5q-203 0 -343 -139t-140 -340z" />
<glyph unicode="P" horiz-adv-x="1264" d="M131 0v1544h516q277 0 424.5 -124.5t147.5 -362.5q0 -508 -541 -508h-203v-549h-344zM475 831h115q274 0 274 218q0 213 -282 213h-107v-431z" />
<glyph unicode="Q" horiz-adv-x="1794" d="M53 774q0 344 242.5 577.5t599.5 233.5q358 0 600 -233.5t242 -577.5q0 -328 -215 -549l223 -241l-322 -60l-123 131q-174 -92 -405 -92q-357 0 -599.5 233.5t-242.5 577.5zM412 774q0 -201 140 -339t343 -138q88 0 160 25l-238 260l324 57l139 -156q100 123 100 291 q0 202 -140 340.5t-345 138.5q-203 0 -343 -139t-140 -340z" />
<glyph unicode="R" horiz-adv-x="1305" d="M131 0v1544h514q259 0 402 -122.5t143 -348.5q0 -155 -88 -273q-95 -128 -258 -157l485 -643h-432l-385 594l-37 8v-602h-344zM475 842h72q289 0 289 219q0 213 -291 213h-70v-432z" />
<glyph unicode="S" horiz-adv-x="1219" d="M78 154l174 268q48 -66 131 -111q97 -53 201 -53q98 0 158 56q59 53 59 135q0 145 -289 225q-203 56 -295 157.5t-92 266.5q0 216 144.5 350.5t373.5 134.5q236 0 444 -145l-157 -262q-116 112 -256 112q-82 0 -136.5 -41.5t-54.5 -103.5q0 -67 56 -107q62 -44 247 -102 q369 -116 369 -436q0 -253 -149.5 -395t-421.5 -142q-147 0 -284.5 53t-221.5 140z" />
<glyph unicode="T" horiz-adv-x="1061" d="M12 1247v297h1037v-297h-347v-1247h-344v1247h-346z" />
<glyph unicode="U" horiz-adv-x="1536" d="M123 588v956h346v-876q0 -402 297 -402q301 0 301 402v876h346v-956q0 -300 -168.5 -463.5t-476.5 -163.5t-476.5 163.5t-168.5 463.5z" />
<glyph unicode="V" horiz-adv-x="1475" d="M-25 1544h377l383 -1065l387 1065h377l-620 -1544h-289z" />
<glyph unicode="W" horiz-adv-x="2193" d="M-18 1544h360l291 -1036l311 1036h303l303 -1036l299 1036h363l-483 -1544h-340l-293 1004l-310 -1004h-337z" />
<glyph unicode="X" horiz-adv-x="1497" d="M-18 0l573 819l-477 725h424l254 -442l256 442h420l-476 -725l560 -819h-416l-344 541l-361 -541h-413z" />
<glyph unicode="Y" horiz-adv-x="1386" d="M-33 1544h414l311 -483l316 483h411l-553 -819v-725h-346v723z" />
<glyph unicode="Z" horiz-adv-x="1343" d="M10 0l742 1247h-668v297h1241l-733 -1247h698v-297h-1280z" />
<glyph unicode="[" horiz-adv-x="690" d="M109 -481v2126h475v-205h-217v-1716h217v-205h-475z" />
<glyph unicode="\" horiz-adv-x="1110" d="M27 1704l254 18l802 -1818l-252 -17z" />
<glyph unicode="]" horiz-adv-x="690" d="M109 -276h215v1716h-215v205h473v-2126h-473v205z" />
<glyph unicode="^" horiz-adv-x="1024" d="M92 1016l299 567h240l299 -567h-279l-141 272l-139 -272h-279z" />
<glyph unicode="_" horiz-adv-x="1024" d="M-12 -227h1048v-158h-1048v158z" />
<glyph unicode="`" horiz-adv-x="801" d="M143 1503l228 135l274 -356l-143 -98z" />
<glyph unicode="a" horiz-adv-x="1329" d="M49 512q0 236 142.5 391.5t361.5 155.5q213 0 334 -156v123h319v-1026h-315v135q-126 -172 -334 -172q-217 0 -362.5 158.5t-145.5 390.5zM381 510q0 -114 71.5 -189t182.5 -75q114 0 185 74t71 192t-72.5 192t-183.5 74q-112 0 -183 -74.5t-71 -193.5z" />
<glyph unicode="b" horiz-adv-x="1329" d="M119 0v1618h319v-582q0 -87 -6 -135q132 158 336 158q218 0 361 -156t143 -393q0 -231 -146.5 -389t-363.5 -158q-222 0 -334 168v-131h-309zM428 520q0 -124 69.5 -199t184.5 -75t186.5 74t71.5 190q0 118 -71 193t-183 75q-111 0 -184.5 -72.5t-73.5 -185.5z" />
<glyph unicode="c" horiz-adv-x="969" d="M49 512q0 236 163 391.5t409 155.5q146 0 247 -62v-284q-90 80 -215 80q-114 0 -193 -81.5t-79 -199.5q0 -121 76 -200t196 -79q131 0 215 78v-284q-117 -62 -252 -62q-246 0 -406.5 154.5t-160.5 392.5z" />
<glyph unicode="d" horiz-adv-x="1329" d="M57 510q0 237 143 393t361 156q204 0 336 -158q-6 48 -6 135v582h319v-1618h-309v131q-112 -168 -334 -168q-217 0 -363.5 158t-146.5 389zM389 510q0 -116 71.5 -190t186.5 -74t184.5 75t69.5 199q0 113 -73.5 185.5t-184.5 72.5q-112 0 -183 -75t-71 -193z" />
<glyph unicode="e" horiz-adv-x="1212" d="M47 512q0 237 157 393t402 156q255 0 410 -161q149 -154 149 -394v-43h-796q10 -110 69 -175q64 -73 174 -73q157 0 217 113l306 -64q-136 -299 -523 -299q-247 0 -407 158q-158 155 -158 389zM379 657h475q-42 170 -238 170q-180 0 -237 -170z" />
<glyph unicode="f" horiz-adv-x="670" d="M18 756v270h129v217q0 414 377 414q76 0 146 -39v-266q-48 22 -117 22q-84 0 -84 -151v-197h201v-270h-201v-756h-322v756h-129z" />
<glyph unicode="g" horiz-adv-x="1323" d="M51 512q0 234 147 390.5t369 156.5q204 0 322 -158v125h319v-1001q0 -613 -565 -613q-237 0 -395 119q-153 116 -170 293l354 37q16 -187 213 -187q244 0 244 316v143q-136 -156 -336 -156q-222 0 -362 149.5t-140 385.5zM383 514q0 -119 70 -190.5t188 -71.5 q113 0 185.5 75.5t72.5 188.5t-71 188q-76 80 -203 80q-107 0 -174.5 -77t-67.5 -193z" />
<glyph unicode="h" horiz-adv-x="1276" d="M123 0v1618h321v-723q114 164 326 164q187 0 285 -110.5t98 -317.5v-631h-319v580q0 219 -170 219q-220 0 -220 -273v-526h-321z" />
<glyph unicode="i" horiz-adv-x="567" d="M94 1407q0 75 56.5 130.5t132.5 55.5q75 0 130.5 -55.5t55.5 -130.5t-55.5 -130.5t-130.5 -55.5q-76 0 -132.5 55.5t-56.5 130.5zM123 0v1026h321v-1026h-321z" />
<glyph unicode="j" horiz-adv-x="567" d="M94 1407q0 75 56.5 130.5t132.5 55.5q75 0 130.5 -55.5t55.5 -130.5t-55.5 -130.5t-130.5 -55.5q-76 0 -132.5 55.5t-56.5 130.5zM123 -553v1579h321v-1579h-321z" />
<glyph unicode="k" horiz-adv-x="1282" d="M125 0v1618h321v-965l379 373h439l-506 -471l547 -555h-453l-406 430v-430h-321z" />
<glyph unicode="l" horiz-adv-x="580" d="M129 0v1618h322v-1618h-322z" />
<glyph unicode="m" horiz-adv-x="1866" d="M123 0v1026h319v-131q116 164 295 164q236 0 338 -191q45 81 126 132q92 59 200 59q344 0 344 -428v-631h-322v580q0 219 -141 219q-81 0 -131 -61q-55 -67 -55 -189v-549h-324v580q0 219 -147 219q-181 0 -181 -273v-526h-321z" />
<glyph unicode="n" horiz-adv-x="1274" d="M125 0v1026h319v-131q116 164 328 164q381 0 381 -428v-631h-322v580q0 219 -180 219q-205 0 -205 -273v-526h-321z" />
<glyph unicode="o" horiz-adv-x="1290" d="M47 512q0 235 168.5 391t429.5 156q260 0 429 -156t169 -391q0 -234 -168 -389q-171 -158 -430 -158q-261 0 -430 158q-168 155 -168 389zM383 512q0 -111 75 -186.5t187 -75.5q113 0 187.5 75t74.5 187t-74.5 187t-187.5 75q-112 0 -187 -75t-75 -187z" />
<glyph unicode="p" horiz-adv-x="1329" d="M119 -592v1618h309v-131q109 164 334 164q218 0 364 -156t146 -387q0 -237 -143 -394t-361 -157q-202 0 -336 160q6 -48 6 -135v-582h-319zM428 506q0 -113 73.5 -186.5t184.5 -73.5q112 0 183 76t71 194q0 116 -71.5 189t-186.5 73t-184.5 -74t-69.5 -198z" />
<glyph unicode="q" horiz-adv-x="1329" d="M57 516q0 231 146 387t364 156q225 0 334 -164v131h309v-1618h-319v582q0 87 6 135q-134 -160 -336 -160q-218 0 -361 157t-143 394zM389 516q0 -118 71 -194t183 -76q111 0 184.5 73.5t73.5 186.5q0 124 -69.5 198t-184.5 74t-186.5 -73t-71.5 -189z" />
<glyph unicode="r" horiz-adv-x="885" d="M127 0v1026h313v-170q103 188 303 188q71 0 134 -18l-48 -285q-53 19 -129 19q-251 0 -251 -301v-459h-322z" />
<glyph unicode="s" horiz-adv-x="979" d="M55 109l138 215q41 -41 112 -74q83 -39 154 -39q49 0 87 26.5t38 65.5q0 50 -45 76q-38 22 -158 53q-256 66 -256 283q0 159 122 253q116 91 298 91q194 0 315 -82l-123 -209q-89 61 -184 61q-113 0 -113 -77q0 -73 181 -111q136 -29 211 -110t75 -193 q0 -167 -126.5 -271t-329.5 -104q-239 0 -396 146z" />
<glyph unicode="t" horiz-adv-x="647" d="M27 756v270h120v381h322v-381h190v-270h-190v-756h-322v756h-120z" />
<glyph unicode="u" horiz-adv-x="1272" d="M117 434v592h319v-551q0 -246 201 -246q106 0 152.5 57.5t46.5 186.5v553h319v-618q0 -215 -132 -329t-384 -114q-522 0 -522 469z" />
<glyph unicode="v" horiz-adv-x="1130" d="M-25 1026h347l243 -604l246 604h344l-448 -1026h-281z" />
<glyph unicode="w" horiz-adv-x="1776" d="M-20 1026h346l209 -608l227 608h254l225 -608l209 608h346l-397 -1026h-281l-229 621l-232 -621h-280z" />
<glyph unicode="x" horiz-adv-x="1335" d="M-31 0l500 555l-401 471h401l199 -242l202 242h414l-412 -471l494 -555h-416l-282 332l-279 -332h-420z" />
<glyph unicode="y" horiz-adv-x="1245" d="M-6 1026h371l284 -600l277 600h350l-764 -1579h-346l307 637z" />
<glyph unicode="z" horiz-adv-x="1073" d="M8 0l510 754h-446v272h991l-508 -754h467v-272h-1014z" />
<glyph unicode="{" horiz-adv-x="692" d="M68 485v193q145 0 145 190v500q0 119 65 192q76 85 224 85h116v-228h-67q-82 0 -82 -110v-463q0 -215 -160 -262q160 -44 160 -263v-462q0 -113 82 -113h67v-225h-116q-148 0 -224 83q-65 72 -65 191v502q0 190 -145 190z" />
<glyph unicode="|" horiz-adv-x="1024" d="M375 -150v1827h272v-1827h-272z" />
<glyph unicode="}" horiz-adv-x="692" d="M76 -256h63q82 0 82 113v462q0 219 164 263q-164 47 -164 262v463q0 110 -82 110h-63v228h117q146 0 221 -85q65 -73 65 -192v-500q0 -190 146 -190v-193q-146 0 -146 -190v-502q0 -119 -65 -191q-74 -83 -221 -83h-117v225z" />
<glyph unicode="~" d="M92 612q170 308 357 308q99 0 245 -109q140 -104 201 -104q77 0 156 172l202 -166q-175 -307 -356 -307q-102 0 -246 106q-148 109 -202 109q-83 0 -154 -172z" />
<glyph unicode="&#xa9;" horiz-adv-x="1749" d="M68 772q0 333 236.5 570t569.5 237q334 0 571.5 -237t237.5 -570t-238 -571t-571 -238t-569.5 237.5t-236.5 571.5zM238 772q0 -263 186.5 -449t449.5 -186t449 186t186 449q0 261 -186.5 448t-448.5 187t-449 -187t-187 -448zM463 778q0 206 120 335.5t326 129.5 q142 0 247.5 -83.5t129.5 -221.5h-166q-13 67 -68 110q-60 46 -147 46q-127 0 -200 -91q-70 -86 -70 -223t70 -224q74 -91 202 -91q85 0 144 46q56 45 69 116h168q-22 -144 -125 -230t-258 -86q-193 0 -317.5 130.5t-124.5 336.5z" />
<glyph unicode="&#xab;" horiz-adv-x="1178" d="M55 655l359 500l184 -125l-274 -375l274 -374l-184 -125zM532 655l357 500l184 -125l-274 -375l274 -374l-184 -125z" />
<glyph unicode="&#xad;" horiz-adv-x="786" d="M119 524v264h549v-264h-549z" />
<glyph unicode="&#xae;" horiz-adv-x="1749" d="M66 772q0 337 238 575t573 238t573 -237.5t238 -573.5t-238 -573.5t-573 -237.5t-573 237t-238 572zM238 774q0 -263 187.5 -450t451.5 -187t450 186.5t186 448.5q0 264 -186 451.5t-450 187.5t-451.5 -187t-187.5 -450zM555 346v862h410q313 0 313 -245 q0 -226 -231 -242l213 -375h-191l-201 375h-141v-375h-172zM727 848h229q156 0 156 113q0 102 -162 102h-223v-215z" />
<glyph unicode="&#xbb;" horiz-adv-x="1178" d="M106 281l271 374l-271 375l185 125l352 -500l-354 -499zM582 281l270 374l-270 375l184 125l354 -500l-356 -499z" />
<glyph unicode="&#x401;" horiz-adv-x="1108" d="M131 0v1544h889v-297h-545v-305h500v-297h-500v-348h545v-297h-889zM164 1823q0 72 52.5 124t123.5 52q72 0 124 -52t52 -124t-52 -124t-124 -52q-71 0 -123.5 52t-52.5 124zM610 1823q0 72 53 124t125 52q71 0 124 -52t53 -124t-53 -124t-124 -52q-72 0 -125 52t-53 124 z" />
<glyph unicode="&#x410;" horiz-adv-x="1554" d="M-14 0l598 1544h387l600 -1544h-367l-119 322h-616l-117 -322h-366zM565 596h422l-209 578z" />
<glyph unicode="&#x411;" horiz-adv-x="1303" d="M131 0v1544h985v-297h-641v-291h182q207 0 358 -84q222 -123 222 -393q0 -278 -223 -399q-147 -80 -357 -80h-526zM475 272h152q266 0 266 207q0 209 -266 209h-152v-416z" />
<glyph unicode="&#x412;" horiz-adv-x="1303" d="M131 0v1544h490q233 0 360 -105t127 -302q0 -100 -52 -182t-138 -126q149 -36 234 -146q81 -105 81 -243q0 -212 -147 -326t-416 -114h-539zM475 270h123q287 0 287 193q0 199 -269 199h-141v-392zM475 920h70q231 0 231 176q0 178 -237 178h-64v-354z" />
<glyph unicode="&#x413;" horiz-adv-x="1012" d="M131 0v1544h846v-297h-500v-1247h-346z" />
<glyph unicode="&#x414;" horiz-adv-x="1526" d="M0 295q231 0 231 506v743h1104v-1249h158v-604h-305v309h-885v-309h-303v604zM418 295h575v954h-438v-571q0 -289 -137 -383z" />
<glyph unicode="&#x415;" horiz-adv-x="1108" d="M131 0v1544h889v-297h-545v-305h500v-297h-500v-348h545v-297h-889z" />
<glyph unicode="&#x416;" horiz-adv-x="2134" d="M-8 0l573 797l-528 747h393l465 -713v713h344v-713l465 713h391l-524 -747l569 -797h-422l-479 743v-743h-342v743l-481 -743h-424z" />
<glyph unicode="&#x417;" horiz-adv-x="1305" d="M55 203l172 231q146 -178 365 -178q126 0 193 70q57 58 57 143q0 93 -67 148q-73 61 -210 61h-159v264h159q244 0 244 182q0 179 -227 179q-178 0 -334 -123l-123 241q227 176 506 176q242 0 394.5 -117.5t152.5 -312.5q0 -116 -65 -208t-175 -132q281 -100 281 -383 q0 -216 -174 -352q-168 -131 -416 -131q-332 0 -574 242z" />
<glyph unicode="&#x418;" horiz-adv-x="1659" d="M131 0v1546h344v-1050l717 1050h336v-1546h-344v1055l-715 -1055h-338z" />
<glyph unicode="&#x419;" horiz-adv-x="1659" d="M131 0v1546h344v-1050l717 1050h336v-1546h-344v1055l-715 -1055h-338zM436 2021h234q0 -74 44.5 -121t114.5 -47q71 0 115.5 47t44.5 121h236q0 -161 -114 -270t-282 -109q-170 0 -281.5 108.5t-111.5 270.5z" />
<glyph unicode="&#x41a;" horiz-adv-x="1462" d="M131 0v1544h344v-684l537 684h430l-627 -729l670 -815h-449l-561 745v-745h-344z" />
<glyph unicode="&#x41b;" horiz-adv-x="1454" d="M-20 4l22 307q55 -22 109 -22q68 0 91 48q27 55 27 222v985h1090v-1544h-346v1247h-408v-710q0 -264 -70 -387q-96 -168 -354 -168q-84 0 -161 22z" />
<glyph unicode="&#x41c;" horiz-adv-x="1911" d="M20 0l254 1544h353l329 -995l338 995h357l239 -1544h-344l-133 965l-356 -965h-203l-352 965l-137 -965h-345z" />
<glyph unicode="&#x41d;" horiz-adv-x="1575" d="M131 0v1544h344v-602h623v602h346v-1544h-346v662h-623v-662h-344z" />
<glyph unicode="&#x41e;" horiz-adv-x="1794" d="M55 772q0 344 242 577.5t598 233.5q358 0 601 -233.5t243 -577.5t-242.5 -577.5t-599.5 -233.5q-358 0 -600 233.5t-242 577.5zM414 772q0 -201 139 -339t342 -138q206 0 345.5 138t139.5 339q0 202 -139.5 340.5t-343.5 138.5t-343.5 -138.5t-139.5 -340.5z" />
<glyph unicode="&#x41f;" horiz-adv-x="1571" d="M131 0v1544h1309v-1544h-346v1249h-619v-1249h-344z" />
<glyph unicode="&#x420;" horiz-adv-x="1264" d="M131 0v1544h516q277 0 424.5 -124.5t147.5 -362.5q0 -508 -541 -508h-203v-549h-344zM475 831h115q274 0 274 218q0 213 -282 213h-107v-431z" />
<glyph unicode="&#x421;" horiz-adv-x="1354" d="M55 772q0 343 243 578q240 233 585 233q194 0 362 -86v-412q-143 166 -366 166q-199 0 -332 -134.5t-133 -344.5q0 -216 133 -349q129 -130 332 -130q213 0 368 164v-414q-195 -82 -366 -82q-358 0 -592 230.5t-234 580.5z" />
<glyph unicode="&#x422;" horiz-adv-x="1061" d="M12 1247v297h1037v-297h-347v-1247h-344v1247h-346z" />
<glyph unicode="&#x423;" horiz-adv-x="1423" d="M-4 1544h416l350 -721l303 721h383l-719 -1544h-379l223 449z" />
<glyph unicode="&#x424;" horiz-adv-x="1888" d="M49 819q0 306 200 459q170 131 453 131h70v174h344v-174h70q283 0 453 -131q200 -153 200 -459t-200 -459q-170 -131 -453 -131h-70v-229h-344v229h-70q-283 0 -453 131q-200 153 -200 459zM399 819q0 -172 100 -258q86 -74 230 -74h55v664h-55q-144 0 -230 -74 q-100 -86 -100 -258zM1104 487h55q144 0 230 74q100 86 100 258t-100 258q-86 74 -230 74h-55v-664z" />
<glyph unicode="&#x425;" horiz-adv-x="1497" d="M-18 0l573 819l-477 725h424l254 -442l256 442h420l-476 -725l560 -819h-416l-344 541l-361 -541h-413z" />
<glyph unicode="&#x426;" horiz-adv-x="1579" d="M137 0v1544h346v-1249h596v1249h346v-1249h152v-604h-305v309h-1135z" />
<glyph unicode="&#x427;" horiz-adv-x="1397" d="M94 1100v444h342v-393q0 -133 46 -190q51 -62 177 -62q151 0 261 39v606h346v-1544h-346v639q-134 -41 -314 -41q-273 0 -394 121q-118 118 -118 381z" />
<glyph unicode="&#x428;" horiz-adv-x="2177" d="M131 0v1544h344v-1249h443v1249h344v-1249h440v1249h344v-1544h-1915z" />
<glyph unicode="&#x429;" horiz-adv-x="2206" d="M135 0v1544h344v-1249h443v1249h342v-1249h440v1249h344v-1249h154v-604h-306v309h-1761z" />
<glyph unicode="&#x42a;" horiz-adv-x="1477" d="M14 1247v297h650v-588h182q206 0 357 -84q220 -123 220 -393q0 -278 -222 -399q-146 -80 -355 -80h-527v1247h-305zM664 272h151q266 0 266 207q0 209 -266 209h-151v-416z" />
<glyph unicode="&#x42b;" horiz-adv-x="1782" d="M131 0v1544h344v-588h154q205 0 357 -84q222 -123 222 -393q0 -278 -223 -399q-147 -80 -356 -80h-498zM475 272h123q264 0 264 207q0 209 -264 209h-123v-416zM1305 0v1544h344v-1544h-344z" />
<glyph unicode="&#x42c;" horiz-adv-x="1284" d="M131 0v1544h344v-588h182q207 0 358 -84q222 -123 222 -393q0 -278 -223 -399q-147 -80 -357 -80h-526zM475 272h152q266 0 266 207q0 209 -266 209h-152v-416z" />
<glyph unicode="&#x42d;" horiz-adv-x="1354" d="M102 68v344q172 -156 400 -156q196 0 314 116q111 109 124 287h-567v267h555q-24 164 -145 262t-289 98q-231 0 -390 -147v338q193 106 435 106q332 0 544.5 -220t212.5 -570q0 -393 -233 -622q-215 -210 -541 -210q-233 0 -420 107z" />
<glyph unicode="&#x42e;" horiz-adv-x="2292" d="M131 0v1544h344v-606h193q54 282 265 460q215 181 507 181q339 0 566.5 -233t227.5 -578t-227.5 -578t-566.5 -233q-307 0 -525.5 200t-255.5 505h-184v-662h-344zM995 768q0 -202 127 -339.5t318 -137.5q192 0 320 137.5t128 339.5q0 203 -128 341t-320 138 q-191 0 -318 -138.5t-127 -340.5z" />
<glyph unicode="&#x42f;" horiz-adv-x="1300" d="M23 0l407 612q-162 39 -253 151.5t-91 280.5q0 290 217 417q141 83 330 83h536v-1544h-344v586h-57l-365 -586h-380zM428 1042q0 -219 277 -219h120v432h-127q-270 0 -270 -213z" />
<glyph unicode="&#x430;" horiz-adv-x="1329" d="M49 512q0 236 142.5 391.5t361.5 155.5q213 0 334 -156v123h319v-1026h-315v135q-126 -172 -334 -172q-217 0 -362.5 158.5t-145.5 390.5zM381 510q0 -114 71.5 -189t182.5 -75q114 0 185 74t71 192t-72.5 192t-183.5 74q-112 0 -183 -74.5t-71 -193.5z" />
<glyph unicode="&#x431;" horiz-adv-x="1272" d="M76 629q0 852 594 852q149 0 206 35q50 30 50 102h268q0 -367 -457 -367q-184 0 -267 -86q-87 -91 -116 -327l4 -2q116 190 363 190q225 0 365 -146q137 -144 137 -368q0 -232 -138 -383q-153 -166 -426 -166q-354 0 -497 265q-86 160 -86 401zM408 492q0 -123 66 -195 t179 -72q118 0 181 76q59 70 59 191q0 276 -240 276q-109 0 -176 -73q-69 -76 -69 -203z" />
<glyph unicode="&#x432;" horiz-adv-x="1128" d="M125 0v1026h473q203 0 309 -70q101 -67 101 -186q0 -161 -160 -211q231 -62 231 -274q0 -118 -90 -196q-102 -89 -282 -89h-582zM438 213h160q156 0 156 102q0 119 -166 119h-150v-221zM438 614h133q152 0 152 105q0 94 -145 94h-140v-199z" />
<glyph unicode="&#x433;" horiz-adv-x="838" d="M127 0v1026h688v-262h-366v-764h-322z" />
<glyph unicode="&#x434;" horiz-adv-x="1225" d="M0 -236v498q168 0 168 250v514h922v-764h122v-498h-288v236h-635v-236h-289zM389 262h389v502h-309v-256q0 -186 -80 -246z" />
<glyph unicode="&#x435;" horiz-adv-x="1212" d="M47 512q0 237 157 393t402 156q255 0 410 -161q149 -154 149 -394v-43h-796q10 -110 69 -175q64 -73 174 -73q157 0 217 113l306 -64q-136 -299 -523 -299q-247 0 -407 158q-158 155 -158 389zM379 657h475q-42 170 -238 170q-180 0 -237 -170z" />
<glyph unicode="&#x436;" horiz-adv-x="1745" d="M-8 0l428 537l-377 489h383l293 -442v442h309v-442l293 442h383l-377 -489l426 -537h-403l-322 471v-471h-309v471l-320 -471h-407z" />
<glyph unicode="&#x437;" horiz-adv-x="1012" d="M45 113l119 204q145 -118 295 -118q164 0 164 125q0 102 -162 102h-131v209h129q159 0 159 104q0 101 -163 101q-156 0 -277 -101l-100 199q173 121 420 121q405 0 405 -285q0 -168 -147 -233q198 -75 198 -252q0 -152 -121 -238t-331 -86q-289 0 -457 148z" />
<glyph unicode="&#x438;" horiz-adv-x="1288" d="M125 0v1026h315v-598l414 598h309v-1026h-315v606l-416 -606h-307z" />
<glyph unicode="&#x439;" horiz-adv-x="1288" d="M125 0v1026h315v-598l414 598h309v-1026h-315v606l-416 -606h-307zM330 1427h188q0 -59 35 -96t92 -37q54 0 88.5 37.5t34.5 95.5h193q0 -129 -91.5 -215t-224.5 -86q-137 0 -226 85t-89 216z" />
<glyph unicode="&#x43a;" horiz-adv-x="1196" d="M125 0v1026h321v-428l338 428h400l-445 -483l471 -543h-409l-355 463v-463h-321z" />
<glyph unicode="&#x43b;" horiz-adv-x="1200" d="M-18 0l18 260q27 -12 72 -12q52 0 72 30q24 35 24 134v614h901v-1026h-321v764h-281v-395q0 -394 -313 -394q-84 0 -172 25z" />
<glyph unicode="&#x43c;" horiz-adv-x="1495" d="M25 0l178 1026h338l207 -618l206 618h340l176 -1026h-309l-90 567l-201 -567h-245l-201 567l-90 -567h-309z" />
<glyph unicode="&#x43d;" horiz-adv-x="1270" d="M125 0v1026h321v-375h377v375h322v-1026h-322v414h-377v-414h-321z" />
<glyph unicode="&#x43e;" horiz-adv-x="1290" d="M47 512q0 235 168.5 391t429.5 156q260 0 429 -156t169 -391q0 -234 -168 -389q-171 -158 -430 -158q-261 0 -430 158q-168 155 -168 389zM383 512q0 -111 75 -186.5t187 -75.5q113 0 187.5 75t74.5 187t-74.5 187t-187.5 75q-112 0 -187 -75t-75 -187z" />
<glyph unicode="&#x43f;" horiz-adv-x="1255" d="M125 0v1026h1005v-1026h-321v764h-363v-764h-321z" />
<glyph unicode="&#x440;" horiz-adv-x="1329" d="M119 -592v1618h309v-131q109 164 334 164q218 0 364 -156t146 -387q0 -237 -143 -394t-361 -157q-202 0 -336 160q6 -48 6 -135v-582h-319zM428 506q0 -113 73.5 -186.5t184.5 -73.5q112 0 183 76t71 194q0 116 -71.5 189t-186.5 73t-184.5 -74t-69.5 -198z" />
<glyph unicode="&#x441;" horiz-adv-x="969" d="M49 512q0 236 163 391.5t409 155.5q146 0 247 -62v-284q-90 80 -215 80q-114 0 -193 -81.5t-79 -199.5q0 -121 76 -200t196 -79q131 0 215 78v-284q-117 -62 -252 -62q-246 0 -406.5 154.5t-160.5 392.5z" />
<glyph unicode="&#x442;" horiz-adv-x="889" d="M12 764v262h865v-262h-271v-764h-321v764h-273z" />
<glyph unicode="&#x443;" horiz-adv-x="1239" d="M-8 1026h368l285 -600l277 600h350l-762 -1579h-346l307 637z" />
<glyph unicode="&#x444;" horiz-adv-x="1800" d="M51 516q0 250 105 390q115 153 344 153q60 0 131 -30q68 -28 108 -66v655h322v-655q104 96 242 96q228 0 342 -153q104 -140 104 -390q0 -541 -451 -541q-61 0 -128 25q-73 28 -109 72v-625h-322v625q-35 -44 -109 -72q-67 -25 -128 -25q-230 0 -345 151 q-106 139 -106 390zM379 516q0 -125 45 -197q48 -77 137 -77q115 0 180 59v426q-92 66 -180 66q-86 0 -136 -79q-46 -75 -46 -198zM1059 301q68 -59 180 -59q88 0 137 77q47 73 47 197q0 122 -49 199.5t-137 77.5q-83 0 -178 -66v-426z" />
<glyph unicode="&#x445;" horiz-adv-x="1341" d="M-29 0l500 555l-401 471h401l199 -242l202 242h414l-412 -471l494 -555h-416l-282 332l-279 -332h-420z" />
<glyph unicode="&#x446;" horiz-adv-x="1251" d="M127 0v1026h322v-764h348v764h321v-764h119v-498h-289v236h-821z" />
<glyph unicode="&#x447;" horiz-adv-x="1151" d="M94 639v387h314v-319q0 -136 141 -136q83 0 153 35v420h322v-1026h-322v377q-137 -43 -243 -43q-365 0 -365 305z" />
<glyph unicode="&#x448;" horiz-adv-x="1821" d="M125 0v1026h313v-764h316v764h313v-764h315v764h314v-1026h-1571z" />
<glyph unicode="&#x449;" horiz-adv-x="1833" d="M127 0v1026h313v-764h316v764h313v-764h315v764h314v-764h123v-498h-289v236h-1405z" />
<glyph unicode="&#x44a;" horiz-adv-x="1204" d="M18 766v260h555v-356h146q205 0 320.5 -88.5t115.5 -249.5q0 -159 -115.5 -245.5t-316.5 -86.5h-467v766h-238zM573 221h125q140 0 140 117q0 113 -140 113h-125v-230z" />
<glyph unicode="&#x44b;" horiz-adv-x="1554" d="M125 0v1026h319v-356h134q205 0 321.5 -89t116.5 -249q0 -159 -116.5 -245.5t-317.5 -86.5h-457zM444 221h111q139 0 139 117q0 113 -139 113h-111v-230zM1110 0v1026h320v-1026h-320z" />
<glyph unicode="&#x44c;" horiz-adv-x="1075" d="M125 0v1026h319v-356h146q205 0 321.5 -89t116.5 -249q0 -159 -116.5 -245.5t-317.5 -86.5h-469zM444 221h123q140 0 140 117q0 113 -140 113h-123v-230z" />
<glyph unicode="&#x44d;" horiz-adv-x="1016" d="M102 29v262q118 -101 297 -101q117 0 193 65q73 63 84 161h-371v211h365q-19 92 -91 150q-76 63 -184 63q-177 0 -293 -97v254q143 66 318 66q231 0 386 -147q161 -153 161 -400q0 -231 -139 -387q-152 -170 -408 -170q-215 0 -318 70z" />
<glyph unicode="&#x44e;" horiz-adv-x="1737" d="M125 0v1026h321v-387h115q40 190 191 305t366 115q248 0 409 -153.5t161 -393.5q0 -238 -162 -393.5t-408 -155.5q-223 0 -377 127q-151 124 -184 326h-111v-416h-321zM872 512q0 -283 246 -283q244 0 244 283q0 285 -244 285q-246 0 -246 -285z" />
<glyph unicode="&#x44f;" horiz-adv-x="1126" d="M49 0l258 383q-225 68 -225 311q0 332 463 332h456v-1026h-321v369l-64 -11l-206 -358h-361zM393 678q0 -123 152 -123h135v248h-133q-154 0 -154 -125z" />
<glyph unicode="&#x451;" horiz-adv-x="1212" d="M47 512q0 237 157 393t402 156q253 0 408 -157q151 -154 151 -398v-43h-796q19 -248 252 -248q148 0 208 113l306 -64q-136 -299 -523 -299q-247 0 -407 158q-158 155 -158 389zM180 1343q0 73 54 127t126 54q74 0 127.5 -53.5t53.5 -127.5q0 -72 -53.5 -125t-127.5 -53 q-72 0 -126 53t-54 125zM383 657h471q-42 170 -238 170q-173 0 -233 -170zM684 1343q0 73 54 127t126 54q74 0 127 -53.5t53 -127.5q0 -72 -53 -125t-127 -53q-72 0 -126 53t-54 125z" />
<glyph unicode="&#x2000;" horiz-adv-x="1010" />
<glyph unicode="&#x2001;" horiz-adv-x="2021" />
<glyph unicode="&#x2002;" horiz-adv-x="1010" />
<glyph unicode="&#x2003;" horiz-adv-x="2021" />
<glyph unicode="&#x2004;" horiz-adv-x="673" />
<glyph unicode="&#x2005;" horiz-adv-x="505" />
<glyph unicode="&#x2006;" horiz-adv-x="336" />
<glyph unicode="&#x2007;" horiz-adv-x="336" />
<glyph unicode="&#x2008;" horiz-adv-x="252" />
<glyph unicode="&#x2009;" horiz-adv-x="404" />
<glyph unicode="&#x200a;" horiz-adv-x="112" />
<glyph unicode="&#x2010;" horiz-adv-x="786" d="M119 524v264h549v-264h-549z" />
<glyph unicode="&#x2011;" horiz-adv-x="786" d="M119 524v264h549v-264h-549z" />
<glyph unicode="&#x2012;" horiz-adv-x="786" d="M119 524v264h549v-264h-549z" />
<glyph unicode="&#x2013;" horiz-adv-x="1024" d="M-12 524v264h1048v-264h-1048z" />
<glyph unicode="&#x2014;" horiz-adv-x="2048" d="M-12 524v264h2072v-264h-2072z" />
<glyph unicode="&#x2018;" horiz-adv-x="711" d="M61 909l351 645l200 -14l-252 -645z" />
<glyph unicode="&#x2019;" horiz-adv-x="711" d="M96 905l252 649l299 -18l-348 -641z" />
<glyph unicode="&#x201a;" horiz-adv-x="659" d="M61 -295l254 645l299 -16l-350 -641z" />
<glyph unicode="&#x201c;" horiz-adv-x="1182" d="M61 909l351 645l200 -14l-252 -645zM535 909l348 645l204 -14l-253 -645z" />
<glyph unicode="&#x201d;" horiz-adv-x="1182" d="M94 905l252 649l299 -18l-348 -641zM565 905l254 649l299 -18l-350 -641z" />
<glyph unicode="&#x201e;" horiz-adv-x="1130" d="M59 -295l252 645l299 -16l-348 -641zM532 -295l252 645l301 -16l-350 -641z" />
<glyph unicode="&#x2026;" horiz-adv-x="2048" d="M141 168q0 86 61 146.5t146 60.5q86 0 146.5 -60.5t60.5 -146.5q0 -85 -60.5 -146t-146.5 -61q-84 0 -145.5 61.5t-61.5 145.5zM819 168q0 86 61 146.5t146 60.5q86 0 147.5 -60.5t61.5 -146.5q0 -85 -61.5 -146t-147.5 -61q-84 0 -145.5 61.5t-61.5 145.5zM1499 168 q0 86 61 146.5t146 60.5q86 0 147.5 -60.5t61.5 -146.5q0 -85 -61.5 -146t-147.5 -61q-84 0 -145.5 61.5t-61.5 145.5z" />
<glyph unicode="&#x202f;" horiz-adv-x="404" />
<glyph unicode="&#x2039;" horiz-adv-x="737" d="M72 655l358 500l184 -125l-274 -375l274 -374l-182 -125z" />
<glyph unicode="&#x203a;" horiz-adv-x="737" d="M127 281l270 374l-270 375l184 125l355 -500l-357 -499z" />
<glyph unicode="&#x205f;" horiz-adv-x="505" />
<glyph unicode="&#x2122;" horiz-adv-x="1958" d="M78 1393v151h708v-151h-270v-684h-172v684h-266zM913 709v835h273l211 -520l205 520h272v-835h-172v692l-256 -692h-100l-261 692v-692h-172z" />
<glyph unicode="&#x25fc;" horiz-adv-x="1025" d="M0 0v1025h1025v-1025h-1025z" />
</font>
</defs>
</svg>
