<?xml version="1.0" encoding="utf-8"?>
<!-- Generator: Adobe Illustrator 19.2.0, SVG Export Plug-In . SVG Version: 6.00 Build 0)  -->
<svg version="1.1" id="Слой_1" xmlns="http://www.w3.org/2000/svg" xmlns:xlink="http://www.w3.org/1999/xlink" x="0px" y="0px"
	 viewBox="0 0 24.663 34.218" style="enable-background:new 0 0 24.663 34.218;" xml:space="preserve">
<style type="text/css">
	.st0{fill:none;stroke:#00AAE7;stroke-width:1.44;stroke-linecap:round;stroke-linejoin:round;stroke-miterlimit:22.9256;}
</style>
<path class="st0" d="M23.583,9.293v22.483c0,0.638-0.538,1.176-1.176,1.176H2.964c-0.638,0-1.176-0.529-1.176-1.176V2.805
	c0-0.647,0.529-1.176,1.176-1.176h12.954"/>
<path class="st0" d="M23.583,9.293h-6.489c-0.647,0-1.176-0.529-1.176-1.176V1.629L23.583,9.293L23.583,9.293z"/>
<line class="st0" x1="6.489" y1="7.929" x2="12.686" y2="7.929"/>
<line class="st0" x1="6.489" y1="13.793" x2="18.882" y2="13.793"/>
<line class="st0" x1="6.489" y1="17.217" x2="18.882" y2="17.217"/>
<line class="st0" x1="6.489" y1="20.64" x2="18.882" y2="20.64"/>
<line class="st0" x1="6.489" y1="24.063" x2="12.686" y2="24.063"/>
</svg>
