<?xml version="1.0" encoding="utf-8"?>
<!-- Generator: Adobe Illustrator 19.2.0, SVG Export Plug-In . SVG Version: 6.00 Build 0)  -->
<svg version="1.1" id="Слой_1" xmlns="http://www.w3.org/2000/svg" xmlns:xlink="http://www.w3.org/1999/xlink" x="0px" y="0px"
	 viewBox="0 0 43 45" style="enable-background:new 0 0 43 45;" xml:space="preserve">
<style type="text/css">
	.st0{fill:none;stroke:#FFFFFF;stroke-width:1.44;stroke-linecap:round;stroke-linejoin:round;stroke-miterlimit:22.9256;}
</style>
<path class="st0" d="M12.721,13.398v1.315V36.36c0,1.174,0.965,2.145,2.145,2.145h14.621c1.18,0,2.145-0.965,2.145-2.145V13.398"/>
<line class="st0" x1="16.014" y1="35.477" x2="16.014" y2="33.052"/>
<line class="st0" x1="16.014" y1="30.102" x2="16.014" y2="27.086"/>
<polyline class="st0" points="23.642,12.938 23.642,38.505 27.133,38.505 27.133,12.809 "/>
<path class="st0" d="M32.211,16.792h1.222c0.58,0,1.057-0.477,1.057-1.057v-2.249c0-0.58-0.481-1.056-1.057-1.056H10.921
	c-0.576,0-1.057,0.481-1.057,1.056v2.249c0,0.573,0.477,1.057,1.057,1.057h1.221"/>
<path class="st0" d="M12.142,22.316H6.975c-0.733,0-1.366-0.614-1.366-1.365V7.599c0-0.751,0.615-1.366,1.366-1.366H37.38
	c0.751,0,1.366,0.632,1.366,1.366V20.95c0,0.733-0.633,1.365-1.366,1.365h-5.168"/>
</svg>
