<?xml version="1.0" encoding="utf-8"?>
<!-- Generator: Adobe Illustrator 19.2.0, SVG Export Plug-In . SVG Version: 6.00 Build 0)  -->
<svg version="1.1" id="Слой_1" xmlns="http://www.w3.org/2000/svg" xmlns:xlink="http://www.w3.org/1999/xlink" x="0px" y="0px"
	 viewBox="0 0 37.421 34.703" style="enable-background:new 0 0 37.421 34.703;" xml:space="preserve">
<style type="text/css">
	.st0{fill:none;stroke:#FFFFFF;stroke-width:1.44;stroke-linecap:round;stroke-linejoin:round;stroke-miterlimit:22.9256;}
	.st1{fill:none;stroke:#FFFFFF;stroke-width:1.44;stroke-miterlimit:22.9256;}
</style>
<path class="st0" d="M31.98,20.414l2.217-2.214c3.82-3.815,1.932-8.969-1.146-12.278c-1.015-1.091-2.173-2.037-3.374-2.709
	c-1.563-0.877-6.464-2.16-9.67,0.96l-6.652,6.619c-1.795,1.787,2.735,3.516,5.029,1.256l1.676-1.651
	c2.476-2.245,5.587,2.254,9.464-0.806"/>
<path class="st0" d="M6.087,19.367l-2.213-2.21C-3.502,9.792,9.272-2.852,16.758,4.434l1.491,1.484"/>
<path class="st0" d="M23.601,12.001l8.566,8.979c1.749,1.833-0.848,5.323-3.091,3.009l-4.015-4.14"/>
<path class="st0" d="M21.561,22.639l4.413,4.534c1.767,1.815,5.344-0.869,3.101-3.184l-4.314-4.451"/>
<path class="st0" d="M20.22,27.649l2.204,2.223c1.784,1.798,5.248-0.768,3.023-3.105"/>
<path class="st1" d="M11.341,17.545l0.236,0.235c0.795,0.796,0.794,2.104,0,2.898l-3.05,3.052c-0.794,0.794-2.102,0.795-2.898,0
	l-0.236-0.236c-0.795-0.795-0.797-2.1,0-2.898l3.051-3.052C9.24,16.748,10.546,16.75,11.341,17.545L11.341,17.545z"/>
<path class="st1" d="M16.473,18.941l0.236,0.236c0.797,0.797,0.794,2.103,0,2.898l-4.859,4.859c-0.795,0.794-2.103,0.794-2.898,0
	l-0.236-0.236c-0.795-0.794-0.797-2.101,0-2.898l4.859-4.859C14.372,18.144,15.676,18.144,16.473,18.941L16.473,18.941z"/>
<path class="st1" d="M18.458,23.482l0.236,0.236c0.797,0.797,0.796,2.102,0,2.898l-3.331,3.331c-0.796,0.796-2.102,0.796-2.898,0
	l-0.236-0.236c-0.795-0.795-0.797-2.101,0-2.898l3.332-3.332C16.358,22.685,17.662,22.685,18.458,23.482L18.458,23.482z"/>
<path class="st1" d="M20.6,27.814l0.236,0.236c0.796,0.796,0.794,2.104,0,2.898l-2.046,2.046c-0.794,0.794-2.103,0.795-2.898,0
	l-0.235-0.235c-0.795-0.795-0.797-2.101,0-2.898l2.046-2.046C18.499,27.017,19.804,27.018,20.6,27.814L20.6,27.814z"/>
</svg>
