<?xml version="1.0" encoding="utf-8"?>
<!-- Generator: Adobe Illustrator 19.2.0, SVG Export Plug-In . SVG Version: 6.00 Build 0)  -->
<svg version="1.1" id="Слой_1" xmlns="http://www.w3.org/2000/svg" xmlns:xlink="http://www.w3.org/1999/xlink" x="0px" y="0px"
	 viewBox="0 0 36.833 38.167" style="enable-background:new 0 0 36.833 38.167;" xml:space="preserve">
<style type="text/css">
	.st0{fill:none;stroke:#00AAE7;stroke-width:1.44;stroke-linecap:round;stroke-linejoin:round;stroke-miterlimit:22.9256;}
</style>
<path class="st0" d="M24.222,14.219c-0.901,3.124-3.351,5.399-5.68,5.513c-2.336-0.114-4.794-2.403-5.688-5.542l-0.441,0.069
	c-0.498,0.077-0.968-0.267-1.046-0.764l-0.432-2.777c-0.077-0.498,0.267-0.968,0.764-1.046l0.313-0.048
	c-0.139-0.435-0.215-0.898-0.215-1.379V7.222c0-2.501,2.046-4.548,4.547-4.548h0.542c-0.006-0.086,0.004-0.168,0.033-0.244
	c0.279-0.737,2.144-0.714,4.165,0.051c0.429,0.163,0.831,0.346,1.196,0.541c1.644,0.687,2.807,2.314,2.807,4.199v1.022
	c0,0.481-0.075,0.944-0.215,1.379l0.313,0.048c0.498,0.078,0.842,0.548,0.765,1.046l-0.431,2.777
	c-0.078,0.498-0.548,0.842-1.046,0.764L24.222,14.219L24.222,14.219z"/>
<line class="st0" x1="29.256" y1="32.968" x2="24.34" y2="32.968"/>
<path class="st0" d="M2.492,35.695l-0.816-7.423v-0.78c0-1.735,1.756-2.736,3.221-3.033c1.338-0.271,6.344-1.357,7.964-2.479
	l0.099-0.015l2.931,13.753l1.759-9.073l-1.491-3.842h4.812l-1.49,3.842l1.71,9.073l2.98-13.753l0.099,0.015
	c1.62,1.122,6.626,2.208,7.964,2.479c1.464,0.297,3.221,1.3,3.221,3.033v0.78l-0.816,7.423"/>
</svg>
