<?xml version="1.0" encoding="utf-8"?>
<!-- Generator: Adobe Illustrator 19.2.0, SVG Export Plug-In . SVG Version: 6.00 Build 0)  -->
<svg version="1.1" id="Слой_1" xmlns="http://www.w3.org/2000/svg" xmlns:xlink="http://www.w3.org/1999/xlink" x="0px" y="0px"
	 viewBox="0 0 24.25 39.25" style="enable-background:new 0 0 24.25 39.25;" xml:space="preserve">
<style type="text/css">
	.st0{fill:none;stroke:#00AAE7;stroke-width:1.44;stroke-linecap:round;stroke-linejoin:round;stroke-miterlimit:22.9256;}
</style>
<line class="st0" x1="12.573" y1="12.245" x2="12.573" y2="14.336"/>
<line class="st0" x1="12.573" y1="23.456" x2="12.573" y2="25.547"/>
<path class="st0" d="M15.604,15.426c-0.964-0.32-1.832-0.621-2.704-0.719c-4.697-0.528-5.3,4.204-0.3,4.189
	c4.859-0.015,4.402,4.722-0.307,4.189c-0.872-0.099-1.74-0.401-2.697-0.719"/>
<path class="st0" d="M23.248,5.536l-0.235,28.588c0,1.48-1.215,2.695-2.695,2.695H4.802c-1.482,0-2.695-1.213-2.695-2.695V5.589
	c0-1.483,1.213-2.695,2.695-2.695h15.516C21.481,2.893,23.323,3.28,23.248,5.536L23.2,6.957"/>
<line class="st0" x1="10.25" y1="33.276" x2="13.645" y2="33.276"/>
<line class="st0" x1="1.936" y1="30.053" x2="21.798" y2="30.053"/>
<line class="st0" x1="2.892" y1="6.85" x2="22.753" y2="6.85"/>
</svg>
