<?xml version="1.0" encoding="utf-8"?>
<!-- Generator: Adobe Illustrator 19.2.0, SVG Export Plug-In . SVG Version: 6.00 Build 0)  -->
<svg version="1.1" id="Слой_1" xmlns="http://www.w3.org/2000/svg" xmlns:xlink="http://www.w3.org/1999/xlink" x="0px" y="0px"
	 viewBox="0 0 36.5 36.5" style="enable-background:new 0 0 36.5 36.5;" xml:space="preserve">
<style type="text/css">
	.st0{fill:none;stroke:#00AAE7;stroke-width:1.44;stroke-linecap:round;stroke-linejoin:round;stroke-miterlimit:22.9256;}
	.st1{fill:none;stroke:#00AAE7;stroke-width:1.44;stroke-miterlimit:22.9256;}
</style>
<path class="st0" d="M26.673,15.015c2.255,1.852,3.651,4.413,3.651,7.241c0,3.148-1.729,5.963-4.448,7.841l0.873,4.373
	c0.078,0.392-0.223,0.712-0.657,0.71l-3.832-0.021c-0.435-0.003-0.84-0.327-0.923-0.718l-0.476-2.245
	c-0.96,0.195-2.273,0.299-3.307,0.299c-1.034,0-2.347-0.104-3.307-0.299L13.77,34.44c-0.083,0.39-0.489,0.716-0.923,0.718
	l-3.832,0.021c-0.434,0.002-0.74-0.318-0.656-0.71l0.873-4.064c-1.73-0.537-3.059-1.842-3.798-3.64h-1.87
	c-0.534,0-1.162-0.001-1.162-0.778v-4.343c0-0.77,0.436-1.241,1.131-1.241h1.454c0.338-1.518,1.083-2.919,2.139-4.124
	c-0.161-2.052-1.13-3.008-2.043-4.743c3.227-0.378,5.435,0.325,6.809,1.471c0.846-0.331,1.829-0.587,2.848-0.755"/>
<path class="st0" d="M34.467,19.942c-0.351,0.624-1.754,2.434-4.11,0.705"/>
<path class="st1" d="M22.385,1.331c3.21,0,5.812,2.602,5.812,5.812c0,3.21-2.602,5.812-5.812,5.812c-3.21,0-5.812-2.602-5.812-5.812
	C16.573,3.934,19.175,1.331,22.385,1.331L22.385,1.331z"/>
<path class="st0" d="M20.856,9.618c0.48,0.242,1.019,0.313,1.563,0.294c1.919-0.065,2.013-2.669-0.181-2.682
	c-2.294-0.013-2.216-2.608-0.142-2.679c0.521-0.018,1,0.059,1.466,0.298"/>
<path class="st0" d="M9.239,19.443c-0.329,0.331-0.578,0.66-0.782,1.022"/>
</svg>
